<svg width="460" height="300" viewBox="0 0 460 300" fill="none" xmlns="http://www.w3.org/2000/svg">
<rect width="460" height="300" fill="white"/>
<rect x="165" y="42" width="129" height="129" rx="64.5" fill="#FF8181"/>
<path fill-rule="evenodd" clip-rule="evenodd" d="M221.194 60.1645C218.367 60.861 212.036 63.7898 211.507 64.6464C210.827 65.7453 211.728 65.6059 214.177 64.232C216.674 62.8316 221.909 61.2389 226.063 60.6162C228.955 60.1825 229.226 60.8085 229.226 67.9191C229.226 72.6717 229.344 73.6199 229.935 73.6199C230.528 73.6199 230.643 72.6287 230.643 67.5355C230.643 60.2014 230.704 60.1031 234.812 60.8482C238.304 61.4813 243.517 63.2365 245.895 64.5793C246.877 65.1339 247.887 65.588 248.139 65.588C250.645 65.588 242.583 61.2162 238.149 60.1711C234.502 59.3113 231.037 59.2418 230.265 60.0129C229.825 60.4537 229.572 60.4537 229.132 60.0129C228.396 59.2777 224.492 59.3524 221.194 60.1645ZM203.713 66.4049C201.885 67.1003 201.887 68.5886 203.717 71.3521C205.633 74.2445 206.619 77.625 206.263 80.0833C205.811 83.2105 208.353 86.9539 211.636 87.9956C213.18 88.4856 212.932 88.9803 210.786 89.6885C209.681 90.0528 208.095 91.1702 207.006 92.3518C205.392 94.1042 205.13 94.6872 205.13 96.5426C205.13 100.326 207.708 103.893 211.623 105.529C214.017 106.529 215.057 106.397 217.676 104.758C220.566 102.95 221.656 101.818 224.299 97.8759C226.475 94.63 226.611 94.6456 227.042 98.1882C227.505 101.993 228.703 105.275 229.63 105.275C230.627 105.275 231.991 101.417 232.402 97.4322C232.547 96.029 232.795 94.8899 232.954 94.9012C233.112 94.9126 234.03 96.1353 234.993 97.6179C237.937 102.149 242.869 106.22 245.417 106.22C246.787 106.22 250.619 104.074 251.975 102.547C253.851 100.435 254.267 99.4194 254.267 96.9451C254.267 93.7678 252.514 91.3615 249.089 89.8364L246.471 88.6708L248.32 87.7637C250.747 86.5721 251.816 85.5667 252.889 83.4633C253.612 82.0473 253.679 81.4643 253.262 80.2652C252.856 79.1029 252.908 78.4669 253.508 77.2007C253.926 76.3219 254.267 75.2579 254.267 74.8365C254.267 74.4146 255.011 72.9877 255.92 71.6658C256.83 70.3434 257.574 68.8863 257.574 68.4275C257.574 65.4803 252.169 65.8984 245.262 69.38C241.53 71.2609 235.679 76.9551 233.5 80.825C232.659 82.3194 231.778 83.4226 231.543 83.2776C230.832 82.8382 231.059 81.6906 232.147 80.2193L233.178 78.8246L232.065 77.6397C230.422 75.8915 228.515 76.0885 227.45 78.1159C227.079 78.8203 227.118 79.3746 227.598 80.242C228.361 81.6207 228.475 83.0692 227.821 83.0692C227.568 83.0692 227.005 82.378 226.571 81.5337C223.181 74.9423 215.946 69.0852 208.6 66.9841C205.202 66.0127 204.852 65.9711 203.713 66.4049ZM203.464 67.9711C203.279 68.2702 203.961 69.715 204.982 71.1853C206.46 73.3147 207.064 73.8302 207.962 73.7276C209.505 73.5519 209.658 73.2901 208.784 72.3235C208.372 71.8671 207.966 70.6434 207.882 69.6039C207.732 67.7533 207.688 67.7112 205.764 67.5709C204.643 67.4892 203.656 67.6612 203.464 67.9711ZM252.377 68.9118C252.377 69.7008 252.033 70.8711 251.612 71.5127C250.996 72.4524 250.962 72.8172 251.434 73.386C252.339 74.476 252.658 74.2861 254.684 71.4574C256.9 68.3628 256.796 67.4778 254.216 67.4778C252.483 67.4778 252.377 67.5605 252.377 68.9118ZM208.91 69.5822C208.91 71.1026 209.827 72.0631 212.077 72.9008C215.566 74.1992 215.676 74.673 212.404 74.3078C209.075 73.936 207.489 74.5214 207.5 76.1169C207.511 77.8296 208.058 78.1924 211.036 78.466C214.419 78.7769 219.155 80.8137 223.41 83.7883C225.074 84.952 226.532 85.904 226.65 85.904C227.278 85.904 226.678 84.0104 225.242 81.461C222.363 76.3508 214.71 69.878 210.643 69.1154C209.207 68.8456 208.91 68.926 208.91 69.5822ZM247.416 69.7102C242.628 71.6521 237.229 76.5705 234.262 81.6934C233.129 83.6494 232.638 85.4316 233.233 85.4316C233.358 85.4316 234.658 84.6657 236.121 83.7293C240.896 80.6748 245.493 78.7514 248.695 78.4684C251.809 78.1929 252.358 77.8414 252.37 76.1169C252.381 74.5318 250.792 73.936 247.538 74.304C244.17 74.6848 244.227 74.0489 247.662 72.9079C249.957 72.1453 250.959 71.1508 250.959 69.6351C250.959 68.7048 249.837 68.7285 247.416 69.7102ZM228.514 78.3488C228.013 79.1605 228.772 80.7069 229.673 80.7069C230.779 80.7069 231.771 79.5026 231.42 78.587C231.113 77.7866 228.971 77.6108 228.514 78.3488ZM209.463 79.358C209.738 80.2703 214.44 82.4583 216.867 82.8028C219.877 83.2303 219.2 82.1682 215.486 80.6393C211.46 78.981 209.205 78.5014 209.463 79.358ZM244.714 80.3771C243.229 80.9483 241.634 81.7974 241.171 82.2642C240.362 83.0801 240.411 83.1009 242.455 82.7966C245.193 82.3894 249.652 80.6427 249.901 79.8801C250.198 78.9668 247.779 79.1988 244.714 80.3771ZM207.681 80.4253C206.951 82.3284 208.876 85.3853 211.718 86.8353C215.841 88.9382 226.864 90.1695 226.864 88.5267C226.864 86.9978 223.794 85.4528 218.79 84.463C212.837 83.2856 211.546 82.808 209.529 81.0376C208.218 79.8862 207.925 79.7894 207.681 80.4253ZM250.301 81.1241C249.186 82.3553 246.364 83.3324 240.677 84.4559C234.744 85.6276 233.006 86.4403 233.006 88.0424C233.006 89.165 233.127 89.2113 236.046 89.2113C239.57 89.2113 245.125 88.1383 247.316 87.0351C250.027 85.6697 251.904 83.5252 251.904 81.7955C251.904 80.0232 251.464 79.8385 250.301 81.1241ZM228.776 84.4446C227.95 85.9877 227.672 93.0095 228.25 97.7157C229.036 104.115 230.179 104.711 230.977 99.1374C231.454 95.8013 231.462 86.5338 230.989 84.841C230.568 83.3357 229.475 83.1396 228.776 84.4446ZM212.926 90.0617C212.406 90.2436 211.556 90.658 211.036 90.9831C210.107 91.5632 210.111 91.5906 211.272 92.5738C212.322 93.463 212.822 93.5405 215.759 93.2688C219.317 92.9395 223.678 91.2306 222.548 90.6079C221.624 90.0986 214.05 89.6687 212.926 90.0617ZM239.295 90.0877C237.947 90.2668 236.716 90.5408 236.56 90.6967C236.041 91.2155 240.316 92.8918 243.019 93.2296C245.869 93.5859 249.07 92.8753 249.07 91.8869C249.07 90.281 244.364 89.4149 239.295 90.0877ZM224.265 91.885C221.093 93.5537 217.835 95.9562 216.668 97.4866C214.579 100.226 214.169 104.33 215.986 104.33C217.361 104.33 220.821 100.889 223.683 96.6763C226.141 93.0562 226.983 91.0695 226.037 91.1201C225.842 91.1305 225.045 91.4744 224.265 91.885ZM233.006 91.9856C233.006 92.7652 238.077 100.059 239.712 101.631C241.097 102.963 243.092 104.33 243.649 104.33C244.527 104.33 244.857 102.387 244.313 100.418C243.688 98.1537 241.98 96.1769 238.983 94.2487C233.381 90.6452 233.006 90.503 233.006 91.9856ZM206.944 94.5946C206.387 95.7427 206.073 97.0283 206.242 97.4705C206.514 98.1768 206.727 98.1216 208.058 97.0018C208.887 96.304 210.056 95.5466 210.655 95.3184C211.844 94.8667 212.139 93.936 211.094 93.936C210.736 93.936 210.179 93.6171 209.855 93.2273C208.858 92.0258 207.995 92.4307 206.944 94.5946ZM248.726 93.4092C247.887 93.8287 247.196 94.2799 247.19 94.4113C247.184 94.5426 247.765 94.9116 248.479 95.231C249.193 95.5509 250.396 96.3465 251.151 96.9999C251.906 97.6533 252.703 98.1882 252.923 98.1882C253.726 98.1882 253.293 95.2759 252.288 93.9171C251.135 92.357 250.897 92.3234 248.726 93.4092ZM258.283 93.8542C257.192 94.0749 256.647 94.767 256.636 95.944C256.626 97.0722 257.441 96.99 257.81 95.8258C258.19 94.6286 260.294 94.5549 261.169 95.7077C262.086 96.9163 261.944 99.5399 260.83 101.968C260.293 103.137 259.442 105.413 258.938 107.026C257.924 110.27 257.05 111.417 255.59 111.417C254.72 111.417 254.65 111.616 254.923 113.318C255.592 117.504 254.065 122.406 250.216 128.426C248.164 131.634 244.096 135.375 238.982 138.755C231.357 143.795 228.61 143.848 221.43 139.091C218.26 136.99 218.445 137.132 215.525 134.562C214.355 133.533 213.257 132.689 213.084 132.685C212.389 132.67 208.214 126.554 206.629 123.229C205.188 120.206 204.911 119.079 204.741 115.551C204.57 112 204.425 111.417 203.713 111.417C202.529 111.417 201.931 110.527 200.319 106.36C197.73 99.6717 197.364 98.0393 198.106 96.4849C198.944 94.7297 201.281 94.2757 201.677 95.7909C201.992 96.9947 202.768 97.0864 202.768 95.9203C202.768 94.6404 201.812 93.936 200.075 93.936C197.833 93.936 196.626 95.3279 196.626 97.9141C196.626 99.9042 199.072 107.848 199.977 108.795C200.213 109.042 200.406 109.62 200.406 110.08C200.406 110.54 201.043 111.388 201.823 111.964C202.942 112.792 203.24 113.371 203.24 114.714C203.24 117.431 204.523 121.734 206.615 126.037L208.555 130.026L208.312 136.195C208.06 142.592 207.671 144.221 204.941 150.291C203.561 153.359 203.535 153.467 204.165 153.467C204.935 153.467 207.076 149.353 208.28 145.564C209.072 143.071 209.515 140.302 209.712 136.617L209.999 131.282L213.119 134.224C216.564 137.472 220.386 140.178 224.804 142.496C228.899 144.644 231.03 144.565 235.668 142.094C240.255 139.649 241.409 138.836 245.838 134.927C247.828 133.171 249.583 131.733 249.736 131.733C249.889 131.733 250.015 133.4 250.015 135.437C250.015 137.58 250.413 140.717 250.959 142.879C251.861 146.447 254.777 153.142 255.669 153.694C256.673 154.314 256.585 152.849 255.506 150.993C254.863 149.885 253.67 147.011 252.855 144.607C251.563 140.791 251.369 139.556 251.324 134.881C251.275 129.683 251.318 129.45 252.782 126.891C254.977 123.054 256.157 119.242 256.157 115.984C256.157 113.396 256.286 113.03 257.594 111.924C259.443 110.36 262.771 101.578 262.771 98.2619C262.771 94.8554 261.16 93.2726 258.283 93.8542ZM214.343 95.0694C210.062 96.4235 207.168 98.7835 207.707 100.481C208.152 101.882 211.133 104.33 212.395 104.33C213.362 104.33 213.489 104.098 213.516 102.265C213.549 100.095 214.467 97.8447 215.756 96.775C216.177 96.4259 216.729 95.7502 216.984 95.274C217.539 94.2384 217.083 94.2029 214.343 95.0694ZM243.02 95.6553C244.844 97.59 246.389 101.313 246.058 102.97C245.814 104.189 245.914 104.33 247.011 104.33C248.685 104.33 252.038 101.003 251.603 99.7747C250.821 97.5707 247.484 95.4838 243.4 94.6433L241.746 94.3031L243.02 95.6553Z" fill="#391345"/>
<path d="M104.152 233V221.8H108.344C109.293 221.8 110.109 221.955 110.792 222.264C111.475 222.563 111.997 223 112.36 223.576C112.733 224.141 112.92 224.829 112.92 225.64C112.92 226.429 112.733 227.112 112.36 227.688C111.997 228.253 111.475 228.691 110.792 229C110.109 229.309 109.293 229.464 108.344 229.464H104.808L105.336 228.904V233H104.152ZM105.336 229L104.808 228.424H108.312C109.432 228.424 110.28 228.184 110.856 227.704C111.443 227.213 111.736 226.525 111.736 225.64C111.736 224.744 111.443 224.051 110.856 223.56C110.28 223.069 109.432 222.824 108.312 222.824H104.808L105.336 222.264V229ZM117.653 233.08C116.959 233.08 116.303 232.984 115.685 232.792C115.066 232.589 114.581 232.339 114.229 232.04L114.741 231.144C115.082 231.4 115.519 231.624 116.053 231.816C116.586 231.997 117.146 232.088 117.733 232.088C118.533 232.088 119.109 231.965 119.461 231.72C119.813 231.464 119.989 231.128 119.989 230.712C119.989 230.403 119.887 230.163 119.685 229.992C119.493 229.811 119.237 229.677 118.917 229.592C118.597 229.496 118.239 229.416 117.845 229.352C117.45 229.288 117.055 229.213 116.661 229.128C116.277 229.043 115.925 228.92 115.605 228.76C115.285 228.589 115.023 228.36 114.821 228.072C114.629 227.784 114.533 227.4 114.533 226.92C114.533 226.461 114.661 226.051 114.917 225.688C115.173 225.325 115.546 225.043 116.037 224.84C116.538 224.627 117.146 224.52 117.861 224.52C118.405 224.52 118.949 224.595 119.493 224.744C120.037 224.883 120.485 225.069 120.837 225.304L120.341 226.216C119.967 225.96 119.567 225.779 119.141 225.672C118.714 225.555 118.287 225.496 117.861 225.496C117.103 225.496 116.543 225.629 116.181 225.896C115.829 226.152 115.653 226.483 115.653 226.888C115.653 227.208 115.749 227.459 115.941 227.64C116.143 227.821 116.405 227.965 116.725 228.072C117.055 228.168 117.413 228.248 117.797 228.312C118.191 228.376 118.581 228.456 118.965 228.552C119.359 228.637 119.717 228.76 120.037 228.92C120.367 229.069 120.629 229.288 120.821 229.576C121.023 229.853 121.125 230.221 121.125 230.68C121.125 231.171 120.986 231.597 120.709 231.96C120.442 232.312 120.047 232.589 119.525 232.792C119.013 232.984 118.389 233.08 117.653 233.08ZM123.209 233V224.6H124.345V233H123.209ZM123.785 222.744C123.55 222.744 123.353 222.664 123.193 222.504C123.033 222.344 122.953 222.152 122.953 221.928C122.953 221.704 123.033 221.517 123.193 221.368C123.353 221.208 123.55 221.128 123.785 221.128C124.02 221.128 124.217 221.203 124.377 221.352C124.537 221.501 124.617 221.688 124.617 221.912C124.617 222.147 124.537 222.344 124.377 222.504C124.228 222.664 124.03 222.744 123.785 222.744ZM130.994 233.08C130.162 233.08 129.415 232.899 128.754 232.536C128.103 232.163 127.591 231.656 127.218 231.016C126.845 230.365 126.658 229.624 126.658 228.792C126.658 227.949 126.845 227.208 127.218 226.568C127.591 225.928 128.103 225.427 128.754 225.064C129.415 224.701 130.162 224.52 130.994 224.52C131.709 224.52 132.354 224.659 132.93 224.936C133.506 225.213 133.959 225.629 134.29 226.184L133.442 226.76C133.154 226.333 132.797 226.019 132.37 225.816C131.943 225.613 131.479 225.512 130.978 225.512C130.381 225.512 129.842 225.651 129.362 225.928C128.882 226.195 128.503 226.573 128.226 227.064C127.949 227.555 127.81 228.131 127.81 228.792C127.81 229.453 127.949 230.029 128.226 230.52C128.503 231.011 128.882 231.395 129.362 231.672C129.842 231.939 130.381 232.072 130.978 232.072C131.479 232.072 131.943 231.971 132.37 231.768C132.797 231.565 133.154 231.256 133.442 230.84L134.29 231.416C133.959 231.96 133.506 232.376 132.93 232.664C132.354 232.941 131.709 233.08 130.994 233.08ZM139.805 233.08C138.994 233.08 138.264 232.899 137.613 232.536C136.973 232.163 136.466 231.656 136.093 231.016C135.72 230.365 135.533 229.624 135.533 228.792C135.533 227.949 135.72 227.208 136.093 226.568C136.466 225.928 136.973 225.427 137.613 225.064C138.253 224.701 138.984 224.52 139.805 224.52C140.637 224.52 141.373 224.701 142.013 225.064C142.664 225.427 143.17 225.928 143.533 226.568C143.906 227.208 144.093 227.949 144.093 228.792C144.093 229.624 143.906 230.365 143.533 231.016C143.17 231.656 142.664 232.163 142.013 232.536C141.362 232.899 140.626 233.08 139.805 233.08ZM139.805 232.072C140.413 232.072 140.952 231.939 141.421 231.672C141.89 231.395 142.258 231.011 142.525 230.52C142.802 230.019 142.941 229.443 142.941 228.792C142.941 228.131 142.802 227.555 142.525 227.064C142.258 226.573 141.89 226.195 141.421 225.928C140.952 225.651 140.418 225.512 139.821 225.512C139.224 225.512 138.69 225.651 138.221 225.928C137.752 226.195 137.378 226.573 137.101 227.064C136.824 227.555 136.685 228.131 136.685 228.792C136.685 229.443 136.824 230.019 137.101 230.52C137.378 231.011 137.752 231.395 138.221 231.672C138.69 231.939 139.218 232.072 139.805 232.072ZM149.068 233.08C148.279 233.08 147.671 232.867 147.244 232.44C146.817 232.013 146.604 231.411 146.604 230.632V222.744H147.74V230.568C147.74 231.059 147.863 231.437 148.108 231.704C148.364 231.971 148.727 232.104 149.196 232.104C149.697 232.104 150.113 231.96 150.444 231.672L150.844 232.488C150.62 232.691 150.348 232.84 150.028 232.936C149.719 233.032 149.399 233.08 149.068 233.08ZM145.1 225.544V224.6H150.3V225.544H145.1ZM156.183 233.08C155.309 233.08 154.541 232.899 153.879 232.536C153.218 232.163 152.701 231.656 152.327 231.016C151.954 230.365 151.767 229.624 151.767 228.792C151.767 227.96 151.943 227.224 152.295 226.584C152.658 225.944 153.149 225.443 153.767 225.08C154.397 224.707 155.101 224.52 155.879 224.52C156.669 224.52 157.367 224.701 157.975 225.064C158.594 225.416 159.079 225.917 159.431 226.568C159.783 227.208 159.959 227.949 159.959 228.792C159.959 228.845 159.954 228.904 159.943 228.968C159.943 229.021 159.943 229.08 159.943 229.144H152.631V228.296H159.335L158.887 228.632C158.887 228.024 158.754 227.485 158.487 227.016C158.231 226.536 157.879 226.163 157.431 225.896C156.983 225.629 156.466 225.496 155.879 225.496C155.303 225.496 154.786 225.629 154.327 225.896C153.869 226.163 153.511 226.536 153.255 227.016C152.999 227.496 152.871 228.045 152.871 228.664V228.84C152.871 229.48 153.01 230.045 153.287 230.536C153.575 231.016 153.97 231.395 154.471 231.672C154.983 231.939 155.565 232.072 156.215 232.072C156.727 232.072 157.202 231.981 157.639 231.8C158.087 231.619 158.471 231.341 158.791 230.968L159.431 231.704C159.058 232.152 158.589 232.493 158.023 232.728C157.469 232.963 156.855 233.08 156.183 233.08ZM162.272 233V224.6H163.36V226.888L163.248 226.488C163.482 225.848 163.877 225.363 164.432 225.032C164.986 224.691 165.674 224.52 166.496 224.52V225.624C166.453 225.624 166.41 225.624 166.368 225.624C166.325 225.613 166.282 225.608 166.24 225.608C165.354 225.608 164.661 225.88 164.16 226.424C163.658 226.957 163.408 227.72 163.408 228.712V233H162.272ZM173.207 233V231.144L173.159 230.84V227.736C173.159 227.021 172.957 226.472 172.551 226.088C172.157 225.704 171.565 225.512 170.775 225.512C170.231 225.512 169.714 225.603 169.223 225.784C168.733 225.965 168.317 226.205 167.975 226.504L167.463 225.656C167.89 225.293 168.402 225.016 168.999 224.824C169.597 224.621 170.226 224.52 170.887 224.52C171.975 224.52 172.813 224.792 173.399 225.336C173.997 225.869 174.295 226.685 174.295 227.784V233H173.207ZM170.311 233.08C169.682 233.08 169.133 232.979 168.663 232.776C168.205 232.563 167.853 232.275 167.607 231.912C167.362 231.539 167.239 231.112 167.239 230.632C167.239 230.195 167.341 229.8 167.543 229.448C167.757 229.085 168.098 228.797 168.567 228.584C169.047 228.36 169.687 228.248 170.487 228.248H173.383V229.096H170.519C169.709 229.096 169.143 229.24 168.823 229.528C168.514 229.816 168.359 230.173 168.359 230.6C168.359 231.08 168.546 231.464 168.919 231.752C169.293 232.04 169.815 232.184 170.487 232.184C171.127 232.184 171.677 232.04 172.135 231.752C172.605 231.453 172.946 231.027 173.159 230.472L173.415 231.256C173.202 231.811 172.829 232.253 172.295 232.584C171.773 232.915 171.111 233.08 170.311 233.08ZM181.717 233.08C180.992 233.08 180.336 232.915 179.749 232.584C179.162 232.243 178.693 231.757 178.341 231.128C178 230.488 177.829 229.709 177.829 228.792C177.829 227.875 178 227.101 178.341 226.472C178.682 225.832 179.146 225.347 179.733 225.016C180.32 224.685 180.981 224.52 181.717 224.52C182.517 224.52 183.232 224.701 183.861 225.064C184.501 225.416 185.002 225.917 185.365 226.568C185.728 227.208 185.909 227.949 185.909 228.792C185.909 229.645 185.728 230.392 185.365 231.032C185.002 231.672 184.501 232.173 183.861 232.536C183.232 232.899 182.517 233.08 181.717 233.08ZM177.381 236.104V224.6H178.469V227.128L178.357 228.808L178.517 230.504V236.104H177.381ZM181.637 232.072C182.234 232.072 182.768 231.939 183.237 231.672C183.706 231.395 184.08 231.011 184.357 230.52C184.634 230.019 184.773 229.443 184.773 228.792C184.773 228.141 184.634 227.571 184.357 227.08C184.08 226.589 183.706 226.205 183.237 225.928C182.768 225.651 182.234 225.512 181.637 225.512C181.04 225.512 180.501 225.651 180.021 225.928C179.552 226.205 179.178 226.589 178.901 227.08C178.634 227.571 178.501 228.141 178.501 228.792C178.501 229.443 178.634 230.019 178.901 230.52C179.178 231.011 179.552 231.395 180.021 231.672C180.501 231.939 181.04 232.072 181.637 232.072ZM188.225 233V224.6H189.361V233H188.225ZM188.801 222.744C188.566 222.744 188.369 222.664 188.209 222.504C188.049 222.344 187.969 222.152 187.969 221.928C187.969 221.704 188.049 221.517 188.209 221.368C188.369 221.208 188.566 221.128 188.801 221.128C189.035 221.128 189.233 221.203 189.393 221.352C189.553 221.501 189.633 221.688 189.633 221.912C189.633 222.147 189.553 222.344 189.393 222.504C189.243 222.664 189.046 222.744 188.801 222.744ZM197.786 233V231.144L197.738 230.84V227.736C197.738 227.021 197.535 226.472 197.13 226.088C196.735 225.704 196.143 225.512 195.354 225.512C194.81 225.512 194.292 225.603 193.802 225.784C193.311 225.965 192.895 226.205 192.554 226.504L192.042 225.656C192.468 225.293 192.98 225.016 193.578 224.824C194.175 224.621 194.804 224.52 195.466 224.52C196.554 224.52 197.391 224.792 197.978 225.336C198.575 225.869 198.874 226.685 198.874 227.784V233H197.786ZM194.89 233.08C194.26 233.08 193.711 232.979 193.242 232.776C192.783 232.563 192.431 232.275 192.186 231.912C191.94 231.539 191.818 231.112 191.818 230.632C191.818 230.195 191.919 229.8 192.122 229.448C192.335 229.085 192.676 228.797 193.146 228.584C193.626 228.36 194.266 228.248 195.066 228.248H197.962V229.096H195.098C194.287 229.096 193.722 229.24 193.402 229.528C193.092 229.816 192.938 230.173 192.938 230.6C192.938 231.08 193.124 231.464 193.498 231.752C193.871 232.04 194.394 232.184 195.066 232.184C195.706 232.184 196.255 232.04 196.714 231.752C197.183 231.453 197.524 231.027 197.738 230.472L197.994 231.256C197.78 231.811 197.407 232.253 196.874 232.584C196.351 232.915 195.69 233.08 194.89 233.08ZM211.251 233.096C210.408 233.096 209.629 232.957 208.915 232.68C208.2 232.392 207.581 231.992 207.059 231.48C206.536 230.968 206.125 230.365 205.827 229.672C205.539 228.979 205.395 228.221 205.395 227.4C205.395 226.579 205.539 225.821 205.827 225.128C206.125 224.435 206.536 223.832 207.059 223.32C207.592 222.808 208.216 222.413 208.931 222.136C209.645 221.848 210.424 221.704 211.267 221.704C212.077 221.704 212.84 221.843 213.555 222.12C214.269 222.387 214.872 222.792 215.363 223.336L214.611 224.088C214.152 223.619 213.645 223.283 213.091 223.08C212.536 222.867 211.939 222.76 211.299 222.76C210.627 222.76 210.003 222.877 209.427 223.112C208.851 223.336 208.349 223.661 207.923 224.088C207.496 224.504 207.16 224.995 206.914 225.56C206.68 226.115 206.562 226.728 206.562 227.4C206.562 228.072 206.68 228.691 206.914 229.256C207.16 229.811 207.496 230.301 207.923 230.728C208.349 231.144 208.851 231.469 209.427 231.704C210.003 231.928 210.627 232.04 211.299 232.04C211.939 232.04 212.536 231.933 213.091 231.72C213.645 231.507 214.152 231.165 214.611 230.696L215.363 231.448C214.872 231.992 214.269 232.403 213.555 232.68C212.84 232.957 212.072 233.096 211.251 233.096ZM220.696 233.08C219.885 233.08 219.154 232.899 218.504 232.536C217.864 232.163 217.357 231.656 216.984 231.016C216.61 230.365 216.424 229.624 216.424 228.792C216.424 227.949 216.61 227.208 216.984 226.568C217.357 225.928 217.864 225.427 218.504 225.064C219.144 224.701 219.874 224.52 220.696 224.52C221.528 224.52 222.264 224.701 222.904 225.064C223.554 225.427 224.061 225.928 224.424 226.568C224.797 227.208 224.984 227.949 224.984 228.792C224.984 229.624 224.797 230.365 224.424 231.016C224.061 231.656 223.554 232.163 222.904 232.536C222.253 232.899 221.517 233.08 220.696 233.08ZM220.696 232.072C221.304 232.072 221.842 231.939 222.312 231.672C222.781 231.395 223.149 231.011 223.416 230.52C223.693 230.019 223.832 229.443 223.832 228.792C223.832 228.131 223.693 227.555 223.416 227.064C223.149 226.573 222.781 226.195 222.312 225.928C221.842 225.651 221.309 225.512 220.712 225.512C220.114 225.512 219.581 225.651 219.112 225.928C218.642 226.195 218.269 226.573 217.992 227.064C217.714 227.555 217.576 228.131 217.576 228.792C217.576 229.443 217.714 230.019 217.992 230.52C218.269 231.011 218.642 231.395 219.112 231.672C219.581 231.939 220.109 232.072 220.696 232.072ZM237.799 224.52C238.481 224.52 239.073 224.653 239.575 224.92C240.087 225.176 240.481 225.571 240.759 226.104C241.047 226.637 241.191 227.309 241.191 228.12V233H240.055V228.232C240.055 227.347 239.841 226.68 239.415 226.232C238.999 225.773 238.407 225.544 237.639 225.544C237.063 225.544 236.561 225.667 236.135 225.912C235.719 226.147 235.393 226.493 235.159 226.952C234.935 227.4 234.823 227.944 234.823 228.584V233H233.687V228.232C233.687 227.347 233.473 226.68 233.047 226.232C232.62 225.773 232.023 225.544 231.255 225.544C230.689 225.544 230.193 225.667 229.767 225.912C229.34 226.147 229.009 226.493 228.775 226.952C228.551 227.4 228.439 227.944 228.439 228.584V233H227.303V224.6H228.391V226.872L228.215 226.472C228.471 225.864 228.881 225.389 229.447 225.048C230.023 224.696 230.7 224.52 231.479 224.52C232.3 224.52 232.999 224.728 233.575 225.144C234.151 225.549 234.524 226.163 234.695 226.984L234.247 226.808C234.492 226.125 234.924 225.576 235.543 225.16C236.172 224.733 236.924 224.52 237.799 224.52ZM248.608 233.08C247.882 233.08 247.226 232.915 246.64 232.584C246.053 232.243 245.584 231.757 245.232 231.128C244.89 230.488 244.72 229.709 244.72 228.792C244.72 227.875 244.89 227.101 245.232 226.472C245.573 225.832 246.037 225.347 246.624 225.016C247.21 224.685 247.872 224.52 248.608 224.52C249.408 224.52 250.122 224.701 250.752 225.064C251.392 225.416 251.893 225.917 252.256 226.568C252.618 227.208 252.8 227.949 252.8 228.792C252.8 229.645 252.618 230.392 252.256 231.032C251.893 231.672 251.392 232.173 250.752 232.536C250.122 232.899 249.408 233.08 248.608 233.08ZM244.272 236.104V224.6H245.36V227.128L245.248 228.808L245.408 230.504V236.104H244.272ZM248.528 232.072C249.125 232.072 249.658 231.939 250.128 231.672C250.597 231.395 250.97 231.011 251.248 230.52C251.525 230.019 251.664 229.443 251.664 228.792C251.664 228.141 251.525 227.571 251.248 227.08C250.97 226.589 250.597 226.205 250.128 225.928C249.658 225.651 249.125 225.512 248.528 225.512C247.93 225.512 247.392 225.651 246.911 225.928C246.442 226.205 246.069 226.589 245.792 227.08C245.525 227.571 245.392 228.141 245.392 228.792C245.392 229.443 245.525 230.019 245.792 230.52C246.069 231.011 246.442 231.395 246.911 231.672C247.392 231.939 247.93 232.072 248.528 232.072ZM258.539 233.08C257.729 233.08 256.998 232.899 256.347 232.536C255.707 232.163 255.201 231.656 254.827 231.016C254.454 230.365 254.267 229.624 254.267 228.792C254.267 227.949 254.454 227.208 254.827 226.568C255.201 225.928 255.707 225.427 256.347 225.064C256.987 224.701 257.718 224.52 258.539 224.52C259.371 224.52 260.107 224.701 260.747 225.064C261.398 225.427 261.905 225.928 262.267 226.568C262.641 227.208 262.827 227.949 262.827 228.792C262.827 229.624 262.641 230.365 262.267 231.016C261.905 231.656 261.398 232.163 260.747 232.536C260.097 232.899 259.361 233.08 258.539 233.08ZM258.539 232.072C259.147 232.072 259.686 231.939 260.155 231.672C260.625 231.395 260.993 231.011 261.259 230.52C261.537 230.019 261.675 229.443 261.675 228.792C261.675 228.131 261.537 227.555 261.259 227.064C260.993 226.573 260.625 226.195 260.155 225.928C259.686 225.651 259.153 225.512 258.555 225.512C257.958 225.512 257.425 225.651 256.955 225.928C256.486 226.195 256.113 226.573 255.835 227.064C255.558 227.555 255.419 228.131 255.419 228.792C255.419 229.443 255.558 230.019 255.835 230.52C256.113 231.011 256.486 231.395 256.955 231.672C257.425 231.939 257.953 232.072 258.539 232.072ZM265.147 233V224.6H266.235V226.888L266.123 226.488C266.357 225.848 266.752 225.363 267.307 225.032C267.861 224.691 268.549 224.52 269.371 224.52V225.624C269.328 225.624 269.285 225.624 269.243 225.624C269.2 225.613 269.157 225.608 269.115 225.608C268.229 225.608 267.536 225.88 267.035 226.424C266.533 226.957 266.283 227.72 266.283 228.712V233H265.147ZM274.459 233.08C273.669 233.08 273.061 232.867 272.635 232.44C272.208 232.013 271.995 231.411 271.995 230.632V222.744H273.131V230.568C273.131 231.059 273.253 231.437 273.499 231.704C273.755 231.971 274.117 232.104 274.587 232.104C275.088 232.104 275.504 231.96 275.835 231.672L276.235 232.488C276.011 232.691 275.739 232.84 275.419 232.936C275.109 233.032 274.789 233.08 274.459 233.08ZM270.491 225.544V224.6H275.691V225.544H270.491ZM283.567 233V231.144L283.519 230.84V227.736C283.519 227.021 283.316 226.472 282.911 226.088C282.516 225.704 281.924 225.512 281.135 225.512C280.591 225.512 280.073 225.603 279.583 225.784C279.092 225.965 278.676 226.205 278.335 226.504L277.823 225.656C278.249 225.293 278.761 225.016 279.359 224.824C279.956 224.621 280.585 224.52 281.247 224.52C282.335 224.52 283.172 224.792 283.759 225.336C284.356 225.869 284.655 226.685 284.655 227.784V233H283.567ZM280.671 233.08C280.041 233.08 279.492 232.979 279.023 232.776C278.564 232.563 278.212 232.275 277.967 231.912C277.721 231.539 277.599 231.112 277.599 230.632C277.599 230.195 277.7 229.8 277.903 229.448C278.116 229.085 278.457 228.797 278.927 228.584C279.407 228.36 280.047 228.248 280.847 228.248H283.743V229.096H280.879C280.068 229.096 279.503 229.24 279.183 229.528C278.873 229.816 278.719 230.173 278.719 230.6C278.719 231.08 278.905 231.464 279.279 231.752C279.652 232.04 280.175 232.184 280.847 232.184C281.487 232.184 282.036 232.04 282.495 231.752C282.964 231.453 283.305 231.027 283.519 230.472L283.775 231.256C283.561 231.811 283.188 232.253 282.655 232.584C282.132 232.915 281.471 233.08 280.671 233.08ZM298.236 224.52C298.919 224.52 299.511 224.653 300.012 224.92C300.524 225.176 300.919 225.571 301.196 226.104C301.484 226.637 301.628 227.309 301.628 228.12V233H300.492V228.232C300.492 227.347 300.279 226.68 299.852 226.232C299.436 225.773 298.844 225.544 298.076 225.544C297.5 225.544 296.999 225.667 296.572 225.912C296.156 226.147 295.831 226.493 295.596 226.952C295.372 227.4 295.26 227.944 295.26 228.584V233H294.124V228.232C294.124 227.347 293.911 226.68 293.484 226.232C293.058 225.773 292.46 225.544 291.692 225.544C291.127 225.544 290.631 225.667 290.204 225.912C289.778 226.147 289.447 226.493 289.212 226.952C288.988 227.4 288.876 227.944 288.876 228.584V233H287.74V224.6H288.828V226.872L288.652 226.472C288.908 225.864 289.319 225.389 289.884 225.048C290.46 224.696 291.138 224.52 291.916 224.52C292.738 224.52 293.436 224.728 294.012 225.144C294.588 225.549 294.962 226.163 295.132 226.984L294.684 226.808C294.93 226.125 295.362 225.576 295.98 225.16C296.61 224.733 297.362 224.52 298.236 224.52ZM308.277 233.08C307.402 233.08 306.634 232.899 305.973 232.536C305.312 232.163 304.794 231.656 304.421 231.016C304.048 230.365 303.861 229.624 303.861 228.792C303.861 227.96 304.037 227.224 304.389 226.584C304.752 225.944 305.242 225.443 305.861 225.08C306.49 224.707 307.194 224.52 307.973 224.52C308.762 224.52 309.461 224.701 310.069 225.064C310.688 225.416 311.173 225.917 311.525 226.568C311.877 227.208 312.053 227.949 312.053 228.792C312.053 228.845 312.048 228.904 312.037 228.968C312.037 229.021 312.037 229.08 312.037 229.144H304.725V228.296H311.429L310.981 228.632C310.981 228.024 310.848 227.485 310.581 227.016C310.325 226.536 309.973 226.163 309.525 225.896C309.077 225.629 308.56 225.496 307.973 225.496C307.397 225.496 306.88 225.629 306.421 225.896C305.962 226.163 305.605 226.536 305.349 227.016C305.093 227.496 304.965 228.045 304.965 228.664V228.84C304.965 229.48 305.104 230.045 305.381 230.536C305.669 231.016 306.064 231.395 306.565 231.672C307.077 231.939 307.658 232.072 308.309 232.072C308.821 232.072 309.296 231.981 309.733 231.8C310.181 231.619 310.565 231.341 310.885 230.968L311.525 231.704C311.152 232.152 310.682 232.493 310.117 232.728C309.562 232.963 308.949 233.08 308.277 233.08ZM318.653 224.52C319.336 224.52 319.933 224.653 320.445 224.92C320.968 225.176 321.373 225.571 321.661 226.104C321.96 226.637 322.109 227.309 322.109 228.12V233H320.973V228.232C320.973 227.347 320.749 226.68 320.301 226.232C319.864 225.773 319.245 225.544 318.445 225.544C317.848 225.544 317.325 225.667 316.877 225.912C316.44 226.147 316.099 226.493 315.853 226.952C315.619 227.4 315.501 227.944 315.501 228.584V233H314.365V224.6H315.453V226.904L315.277 226.472C315.544 225.864 315.971 225.389 316.557 225.048C317.144 224.696 317.843 224.52 318.653 224.52ZM327.834 233.08C327.044 233.08 326.436 232.867 326.01 232.44C325.583 232.013 325.37 231.411 325.37 230.632V222.744H326.506V230.568C326.506 231.059 326.628 231.437 326.874 231.704C327.13 231.971 327.492 232.104 327.962 232.104C328.463 232.104 328.879 231.96 329.21 231.672L329.61 232.488C329.386 232.691 329.114 232.84 328.794 232.936C328.484 233.032 328.164 233.08 327.834 233.08ZM323.866 225.544V224.6H329.066V225.544H323.866ZM336.942 233V231.144L336.894 230.84V227.736C336.894 227.021 336.691 226.472 336.286 226.088C335.891 225.704 335.299 225.512 334.51 225.512C333.966 225.512 333.448 225.603 332.958 225.784C332.467 225.965 332.051 226.205 331.71 226.504L331.198 225.656C331.624 225.293 332.136 225.016 332.734 224.824C333.331 224.621 333.96 224.52 334.622 224.52C335.71 224.52 336.547 224.792 337.134 225.336C337.731 225.869 338.03 226.685 338.03 227.784V233H336.942ZM334.046 233.08C333.416 233.08 332.867 232.979 332.398 232.776C331.939 232.563 331.587 232.275 331.342 231.912C331.096 231.539 330.974 231.112 330.974 230.632C330.974 230.195 331.075 229.8 331.278 229.448C331.491 229.085 331.832 228.797 332.302 228.584C332.782 228.36 333.422 228.248 334.222 228.248H337.118V229.096H334.254C333.443 229.096 332.878 229.24 332.558 229.528C332.248 229.816 332.094 230.173 332.094 230.6C332.094 231.08 332.28 231.464 332.654 231.752C333.027 232.04 333.55 232.184 334.222 232.184C334.862 232.184 335.411 232.04 335.87 231.752C336.339 231.453 336.68 231.027 336.894 230.472L337.15 231.256C336.936 231.811 336.563 232.253 336.03 232.584C335.507 232.915 334.846 233.08 334.046 233.08ZM341.115 233V221.128H342.251V233H341.115ZM353.168 233.08C352.293 233.08 351.525 232.899 350.864 232.536C350.202 232.163 349.685 231.656 349.312 231.016C348.938 230.365 348.752 229.624 348.752 228.792C348.752 227.96 348.928 227.224 349.28 226.584C349.642 225.944 350.133 225.443 350.752 225.08C351.381 224.707 352.085 224.52 352.864 224.52C353.653 224.52 354.352 224.701 354.96 225.064C355.578 225.416 356.064 225.917 356.416 226.568C356.768 227.208 356.944 227.949 356.944 228.792C356.944 228.845 356.938 228.904 356.928 228.968C356.928 229.021 356.928 229.08 356.928 229.144H349.616V228.296H356.32L355.872 228.632C355.872 228.024 355.738 227.485 355.472 227.016C355.216 226.536 354.864 226.163 354.416 225.896C353.968 225.629 353.45 225.496 352.864 225.496C352.288 225.496 351.77 225.629 351.312 225.896C350.853 226.163 350.496 226.536 350.24 227.016C349.984 227.496 349.856 228.045 349.856 228.664V228.84C349.856 229.48 349.994 230.045 350.272 230.536C350.56 231.016 350.954 231.395 351.456 231.672C351.968 231.939 352.549 232.072 353.2 232.072C353.712 232.072 354.186 231.981 354.624 231.8C355.072 231.619 355.456 231.341 355.776 230.968L356.416 231.704C356.042 232.152 355.573 232.493 355.008 232.728C354.453 232.963 353.84 233.08 353.168 233.08ZM125.618 253.096C124.775 253.096 123.996 252.957 123.282 252.68C122.567 252.392 121.948 251.992 121.426 251.48C120.903 250.968 120.492 250.365 120.194 249.672C119.906 248.979 119.762 248.221 119.762 247.4C119.762 246.579 119.906 245.821 120.194 245.128C120.492 244.435 120.903 243.832 121.426 243.32C121.959 242.808 122.583 242.413 123.298 242.136C124.012 241.848 124.791 241.704 125.634 241.704C126.444 241.704 127.207 241.843 127.922 242.12C128.636 242.387 129.239 242.792 129.73 243.336L128.978 244.088C128.519 243.619 128.012 243.283 127.458 243.08C126.903 242.867 126.306 242.76 125.666 242.76C124.994 242.76 124.37 242.877 123.794 243.112C123.218 243.336 122.716 243.661 122.29 244.088C121.863 244.504 121.527 244.995 121.282 245.56C121.047 246.115 120.93 246.728 120.93 247.4C120.93 248.072 121.047 248.691 121.282 249.256C121.527 249.811 121.863 250.301 122.29 250.728C122.716 251.144 123.218 251.469 123.794 251.704C124.37 251.928 124.994 252.04 125.666 252.04C126.306 252.04 126.903 251.933 127.458 251.72C128.012 251.507 128.519 251.165 128.978 250.696L129.73 251.448C129.239 251.992 128.636 252.403 127.922 252.68C127.207 252.957 126.439 253.096 125.618 253.096ZM135.063 253.08C134.252 253.08 133.521 252.899 132.871 252.536C132.231 252.163 131.724 251.656 131.351 251.016C130.977 250.365 130.791 249.624 130.791 248.792C130.791 247.949 130.977 247.208 131.351 246.568C131.724 245.928 132.231 245.427 132.871 245.064C133.511 244.701 134.241 244.52 135.063 244.52C135.895 244.52 136.631 244.701 137.271 245.064C137.921 245.427 138.428 245.928 138.791 246.568C139.164 247.208 139.351 247.949 139.351 248.792C139.351 249.624 139.164 250.365 138.791 251.016C138.428 251.656 137.921 252.163 137.271 252.536C136.62 252.899 135.884 253.08 135.063 253.08ZM135.063 252.072C135.671 252.072 136.209 251.939 136.679 251.672C137.148 251.395 137.516 251.011 137.783 250.52C138.06 250.019 138.199 249.443 138.199 248.792C138.199 248.131 138.06 247.555 137.783 247.064C137.516 246.573 137.148 246.195 136.679 245.928C136.209 245.651 135.676 245.512 135.079 245.512C134.481 245.512 133.948 245.651 133.479 245.928C133.009 246.195 132.636 246.573 132.359 247.064C132.081 247.555 131.943 248.131 131.943 248.792C131.943 249.443 132.081 250.019 132.359 250.52C132.636 251.011 133.009 251.395 133.479 251.672C133.948 251.939 134.476 252.072 135.063 252.072ZM145.254 256.184C144.486 256.184 143.75 256.072 143.046 255.848C142.342 255.624 141.771 255.304 141.334 254.888L141.91 254.024C142.305 254.376 142.79 254.653 143.366 254.856C143.953 255.069 144.571 255.176 145.222 255.176C146.289 255.176 147.073 254.925 147.574 254.424C148.075 253.933 148.326 253.165 148.326 252.12V250.024L148.486 248.584L148.374 247.144V244.6H149.462V251.976C149.462 253.427 149.105 254.488 148.39 255.16C147.686 255.843 146.641 256.184 145.254 256.184ZM145.046 252.68C144.246 252.68 143.526 252.509 142.886 252.168C142.246 251.816 141.739 251.331 141.366 250.712C141.003 250.093 140.822 249.384 140.822 248.584C140.822 247.784 141.003 247.08 141.366 246.472C141.739 245.853 142.246 245.373 142.886 245.032C143.526 244.691 144.246 244.52 145.046 244.52C145.793 244.52 146.465 244.675 147.062 244.984C147.659 245.293 148.134 245.752 148.486 246.36C148.838 246.968 149.014 247.709 149.014 248.584C149.014 249.459 148.838 250.2 148.486 250.808C148.134 251.416 147.659 251.88 147.062 252.2C146.465 252.52 145.793 252.68 145.046 252.68ZM145.158 251.672C145.777 251.672 146.326 251.544 146.806 251.288C147.286 251.021 147.665 250.659 147.942 250.2C148.219 249.731 148.358 249.192 148.358 248.584C148.358 247.976 148.219 247.443 147.942 246.984C147.665 246.525 147.286 246.168 146.806 245.912C146.326 245.645 145.777 245.512 145.158 245.512C144.55 245.512 144.001 245.645 143.51 245.912C143.03 246.168 142.651 246.525 142.374 246.984C142.107 247.443 141.974 247.976 141.974 248.584C141.974 249.192 142.107 249.731 142.374 250.2C142.651 250.659 143.03 251.021 143.51 251.288C144.001 251.544 144.55 251.672 145.158 251.672ZM156.911 244.52C157.594 244.52 158.191 244.653 158.703 244.92C159.226 245.176 159.631 245.571 159.919 246.104C160.218 246.637 160.367 247.309 160.367 248.12V253H159.231V248.232C159.231 247.347 159.007 246.68 158.559 246.232C158.122 245.773 157.503 245.544 156.703 245.544C156.106 245.544 155.583 245.667 155.135 245.912C154.698 246.147 154.356 246.493 154.111 246.952C153.876 247.4 153.759 247.944 153.759 248.584V253H152.623V244.6H153.711V246.904L153.535 246.472C153.802 245.864 154.228 245.389 154.815 245.048C155.402 244.696 156.1 244.52 156.911 244.52ZM163.436 253V244.6H164.572V253H163.436ZM164.012 242.744C163.777 242.744 163.58 242.664 163.42 242.504C163.26 242.344 163.18 242.152 163.18 241.928C163.18 241.704 163.26 241.517 163.42 241.368C163.58 241.208 163.777 241.128 164.012 241.128C164.246 241.128 164.444 241.203 164.604 241.352C164.764 241.501 164.844 241.688 164.844 241.912C164.844 242.147 164.764 242.344 164.604 242.504C164.454 242.664 164.257 242.744 164.012 242.744ZM170.388 253.08C169.599 253.08 168.991 252.867 168.564 252.44C168.138 252.013 167.924 251.411 167.924 250.632V242.744H169.06V250.568C169.06 251.059 169.183 251.437 169.428 251.704C169.684 251.971 170.047 252.104 170.516 252.104C171.018 252.104 171.434 251.96 171.764 251.672L172.164 252.488C171.94 252.691 171.668 252.84 171.348 252.936C171.039 253.032 170.719 253.08 170.388 253.08ZM166.42 245.544V244.6H171.62V245.544H166.42ZM174.232 253V244.6H175.368V253H174.232ZM174.808 242.744C174.574 242.744 174.376 242.664 174.216 242.504C174.056 242.344 173.976 242.152 173.976 241.928C173.976 241.704 174.056 241.517 174.216 241.368C174.376 241.208 174.574 241.128 174.808 241.128C175.043 241.128 175.24 241.203 175.4 241.352C175.56 241.501 175.64 241.688 175.64 241.912C175.64 242.147 175.56 242.344 175.4 242.504C175.251 242.664 175.054 242.744 174.808 242.744ZM180.689 253L176.961 244.6H178.145L181.569 252.392H181.009L184.481 244.6H185.601L181.857 253H180.689ZM190.391 253.08C189.58 253.08 188.849 252.899 188.199 252.536C187.559 252.163 187.052 251.656 186.679 251.016C186.305 250.365 186.119 249.624 186.119 248.792C186.119 247.949 186.305 247.208 186.679 246.568C187.052 245.928 187.559 245.427 188.199 245.064C188.839 244.701 189.569 244.52 190.391 244.52C191.223 244.52 191.959 244.701 192.599 245.064C193.249 245.427 193.756 245.928 194.119 246.568C194.492 247.208 194.679 247.949 194.679 248.792C194.679 249.624 194.492 250.365 194.119 251.016C193.756 251.656 193.249 252.163 192.599 252.536C191.948 252.899 191.212 253.08 190.391 253.08ZM190.391 252.072C190.999 252.072 191.537 251.939 192.007 251.672C192.476 251.395 192.844 251.011 193.111 250.52C193.388 250.019 193.527 249.443 193.527 248.792C193.527 248.131 193.388 247.555 193.111 247.064C192.844 246.573 192.476 246.195 192.007 245.928C191.537 245.651 191.004 245.512 190.407 245.512C189.809 245.512 189.276 245.651 188.807 245.928C188.337 246.195 187.964 246.573 187.687 247.064C187.409 247.555 187.271 248.131 187.271 248.792C187.271 249.443 187.409 250.019 187.687 250.52C187.964 251.011 188.337 251.395 188.807 251.672C189.276 251.939 189.804 252.072 190.391 252.072ZM196.53 249.16V248.168H200.722V249.16H196.53ZM208.493 253.096C207.65 253.096 206.871 252.957 206.157 252.68C205.442 252.392 204.823 251.992 204.301 251.48C203.778 250.968 203.367 250.365 203.069 249.672C202.781 248.979 202.637 248.221 202.637 247.4C202.637 246.579 202.781 245.821 203.069 245.128C203.367 244.435 203.778 243.832 204.301 243.32C204.834 242.808 205.458 242.413 206.173 242.136C206.887 241.848 207.666 241.704 208.509 241.704C209.319 241.704 210.082 241.843 210.797 242.12C211.511 242.387 212.114 242.792 212.605 243.336L211.853 244.088C211.394 243.619 210.887 243.283 210.333 243.08C209.778 242.867 209.181 242.76 208.541 242.76C207.869 242.76 207.245 242.877 206.669 243.112C206.093 243.336 205.591 243.661 205.165 244.088C204.738 244.504 204.402 244.995 204.157 245.56C203.922 246.115 203.805 246.728 203.805 247.4C203.805 248.072 203.922 248.691 204.157 249.256C204.402 249.811 204.738 250.301 205.165 250.728C205.591 251.144 206.093 251.469 206.669 251.704C207.245 251.928 207.869 252.04 208.541 252.04C209.181 252.04 209.778 251.933 210.333 251.72C210.887 251.507 211.394 251.165 211.853 250.696L212.605 251.448C212.114 251.992 211.511 252.403 210.797 252.68C210.082 252.957 209.314 253.096 208.493 253.096ZM217.938 253.08C217.127 253.08 216.396 252.899 215.746 252.536C215.106 252.163 214.599 251.656 214.226 251.016C213.852 250.365 213.666 249.624 213.666 248.792C213.666 247.949 213.852 247.208 214.226 246.568C214.599 245.928 215.106 245.427 215.746 245.064C216.386 244.701 217.116 244.52 217.938 244.52C218.77 244.52 219.506 244.701 220.146 245.064C220.796 245.427 221.303 245.928 221.666 246.568C222.039 247.208 222.226 247.949 222.226 248.792C222.226 249.624 222.039 250.365 221.666 251.016C221.303 251.656 220.796 252.163 220.146 252.536C219.495 252.899 218.759 253.08 217.938 253.08ZM217.938 252.072C218.546 252.072 219.084 251.939 219.554 251.672C220.023 251.395 220.391 251.011 220.658 250.52C220.935 250.019 221.074 249.443 221.074 248.792C221.074 248.131 220.935 247.555 220.658 247.064C220.391 246.573 220.023 246.195 219.554 245.928C219.084 245.651 218.551 245.512 217.954 245.512C217.356 245.512 216.823 245.651 216.354 245.928C215.884 246.195 215.511 246.573 215.234 247.064C214.956 247.555 214.818 248.131 214.818 248.792C214.818 249.443 214.956 250.019 215.234 250.52C215.511 251.011 215.884 251.395 216.354 251.672C216.823 251.939 217.351 252.072 217.938 252.072ZM235.041 244.52C235.724 244.52 236.316 244.653 236.817 244.92C237.329 245.176 237.724 245.571 238.001 246.104C238.289 246.637 238.433 247.309 238.433 248.12V253H237.297V248.232C237.297 247.347 237.084 246.68 236.657 246.232C236.241 245.773 235.649 245.544 234.881 245.544C234.305 245.544 233.804 245.667 233.377 245.912C232.961 246.147 232.636 246.493 232.401 246.952C232.177 247.4 232.065 247.944 232.065 248.584V253H230.929V248.232C230.929 247.347 230.716 246.68 230.289 246.232C229.862 245.773 229.265 245.544 228.497 245.544C227.932 245.544 227.436 245.667 227.009 245.912C226.582 246.147 226.252 246.493 226.017 246.952C225.793 247.4 225.681 247.944 225.681 248.584V253H224.545V244.6H225.633V246.872L225.457 246.472C225.713 245.864 226.124 245.389 226.689 245.048C227.265 244.696 227.942 244.52 228.721 244.52C229.542 244.52 230.241 244.728 230.817 245.144C231.393 245.549 231.766 246.163 231.937 246.984L231.489 246.808C231.734 246.125 232.166 245.576 232.785 245.16C233.414 244.733 234.166 244.52 235.041 244.52ZM245.85 253.08C245.124 253.08 244.468 252.915 243.882 252.584C243.295 252.243 242.826 251.757 242.474 251.128C242.132 250.488 241.962 249.709 241.962 248.792C241.962 247.875 242.132 247.101 242.474 246.472C242.815 245.832 243.279 245.347 243.866 245.016C244.452 244.685 245.114 244.52 245.85 244.52C246.65 244.52 247.364 244.701 247.994 245.064C248.634 245.416 249.135 245.917 249.498 246.568C249.86 247.208 250.042 247.949 250.042 248.792C250.042 249.645 249.86 250.392 249.498 251.032C249.135 251.672 248.634 252.173 247.994 252.536C247.364 252.899 246.65 253.08 245.85 253.08ZM241.514 256.104V244.6H242.602V247.128L242.49 248.808L242.65 250.504V256.104H241.514ZM245.77 252.072C246.367 252.072 246.9 251.939 247.37 251.672C247.839 251.395 248.212 251.011 248.49 250.52C248.767 250.019 248.906 249.443 248.906 248.792C248.906 248.141 248.767 247.571 248.49 247.08C248.212 246.589 247.839 246.205 247.37 245.928C246.9 245.651 246.367 245.512 245.77 245.512C245.172 245.512 244.634 245.651 244.154 245.928C243.684 246.205 243.311 246.589 243.034 247.08C242.767 247.571 242.634 248.141 242.634 248.792C242.634 249.443 242.767 250.019 243.034 250.52C243.311 251.011 243.684 251.395 244.154 251.672C244.634 251.939 245.172 252.072 245.77 252.072ZM255.781 253.08C254.971 253.08 254.24 252.899 253.589 252.536C252.949 252.163 252.443 251.656 252.069 251.016C251.696 250.365 251.509 249.624 251.509 248.792C251.509 247.949 251.696 247.208 252.069 246.568C252.443 245.928 252.949 245.427 253.589 245.064C254.229 244.701 254.96 244.52 255.781 244.52C256.613 244.52 257.349 244.701 257.989 245.064C258.64 245.427 259.147 245.928 259.509 246.568C259.883 247.208 260.069 247.949 260.069 248.792C260.069 249.624 259.883 250.365 259.509 251.016C259.147 251.656 258.64 252.163 257.989 252.536C257.339 252.899 256.603 253.08 255.781 253.08ZM255.781 252.072C256.389 252.072 256.928 251.939 257.397 251.672C257.867 251.395 258.235 251.011 258.501 250.52C258.779 250.019 258.917 249.443 258.917 248.792C258.917 248.131 258.779 247.555 258.501 247.064C258.235 246.573 257.867 246.195 257.397 245.928C256.928 245.651 256.395 245.512 255.797 245.512C255.2 245.512 254.667 245.651 254.197 245.928C253.728 246.195 253.355 246.573 253.077 247.064C252.8 247.555 252.661 248.131 252.661 248.792C252.661 249.443 252.8 250.019 253.077 250.52C253.355 251.011 253.728 251.395 254.197 251.672C254.667 251.939 255.195 252.072 255.781 252.072ZM262.389 253V244.6H263.477V246.888L263.365 246.488C263.599 245.848 263.994 245.363 264.549 245.032C265.103 244.691 265.791 244.52 266.613 244.52V245.624C266.57 245.624 266.527 245.624 266.485 245.624C266.442 245.613 266.399 245.608 266.357 245.608C265.471 245.608 264.778 245.88 264.277 246.424C263.775 246.957 263.525 247.72 263.525 248.712V253H262.389ZM271.701 253.08C270.912 253.08 270.304 252.867 269.877 252.44C269.45 252.013 269.237 251.411 269.237 250.632V242.744H270.373V250.568C270.373 251.059 270.496 251.437 270.741 251.704C270.997 251.971 271.36 252.104 271.829 252.104C272.33 252.104 272.746 251.96 273.077 251.672L273.477 252.488C273.253 252.691 272.981 252.84 272.661 252.936C272.352 253.032 272.032 253.08 271.701 253.08ZM267.733 245.544V244.6H272.933V245.544H267.733ZM280.809 253V251.144L280.761 250.84V247.736C280.761 247.021 280.558 246.472 280.153 246.088C279.758 245.704 279.166 245.512 278.377 245.512C277.833 245.512 277.316 245.603 276.825 245.784C276.334 245.965 275.918 246.205 275.577 246.504L275.065 245.656C275.492 245.293 276.004 245.016 276.601 244.824C277.198 244.621 277.828 244.52 278.489 244.52C279.577 244.52 280.414 244.792 281.001 245.336C281.598 245.869 281.897 246.685 281.897 247.784V253H280.809ZM277.913 253.08C277.284 253.08 276.734 252.979 276.265 252.776C275.806 252.563 275.454 252.275 275.209 251.912C274.964 251.539 274.841 251.112 274.841 250.632C274.841 250.195 274.942 249.8 275.145 249.448C275.358 249.085 275.7 248.797 276.169 248.584C276.649 248.36 277.289 248.248 278.089 248.248H280.985V249.096H278.121C277.31 249.096 276.745 249.24 276.425 249.528C276.116 249.816 275.961 250.173 275.961 250.6C275.961 251.08 276.148 251.464 276.521 251.752C276.894 252.04 277.417 252.184 278.089 252.184C278.729 252.184 279.278 252.04 279.737 251.752C280.206 251.453 280.548 251.027 280.761 250.472L281.017 251.256C280.804 251.811 280.43 252.253 279.897 252.584C279.374 252.915 278.713 253.08 277.913 253.08ZM295.478 244.52C296.161 244.52 296.753 244.653 297.254 244.92C297.766 245.176 298.161 245.571 298.438 246.104C298.726 246.637 298.87 247.309 298.87 248.12V253H297.734V248.232C297.734 247.347 297.521 246.68 297.094 246.232C296.678 245.773 296.086 245.544 295.318 245.544C294.742 245.544 294.241 245.667 293.814 245.912C293.398 246.147 293.073 246.493 292.838 246.952C292.614 247.4 292.502 247.944 292.502 248.584V253H291.366V248.232C291.366 247.347 291.153 246.68 290.726 246.232C290.3 245.773 289.702 245.544 288.934 245.544C288.369 245.544 287.873 245.667 287.446 245.912C287.02 246.147 286.689 246.493 286.454 246.952C286.23 247.4 286.118 247.944 286.118 248.584V253H284.982V244.6H286.07V246.872L285.894 246.472C286.15 245.864 286.561 245.389 287.126 245.048C287.702 244.696 288.38 244.52 289.158 244.52C289.98 244.52 290.678 244.728 291.254 245.144C291.83 245.549 292.204 246.163 292.374 246.984L291.926 246.808C292.172 246.125 292.604 245.576 293.222 245.16C293.852 244.733 294.604 244.52 295.478 244.52ZM305.519 253.08C304.645 253.08 303.877 252.899 303.215 252.536C302.554 252.163 302.037 251.656 301.663 251.016C301.29 250.365 301.103 249.624 301.103 248.792C301.103 247.96 301.279 247.224 301.631 246.584C301.994 245.944 302.485 245.443 303.103 245.08C303.733 244.707 304.437 244.52 305.215 244.52C306.005 244.52 306.703 244.701 307.311 245.064C307.93 245.416 308.415 245.917 308.767 246.568C309.119 247.208 309.295 247.949 309.295 248.792C309.295 248.845 309.29 248.904 309.279 248.968C309.279 249.021 309.279 249.08 309.279 249.144H301.967V248.296H308.671L308.223 248.632C308.223 248.024 308.09 247.485 307.823 247.016C307.567 246.536 307.215 246.163 306.767 245.896C306.319 245.629 305.802 245.496 305.215 245.496C304.639 245.496 304.122 245.629 303.663 245.896C303.205 246.163 302.847 246.536 302.591 247.016C302.335 247.496 302.207 248.045 302.207 248.664V248.84C302.207 249.48 302.346 250.045 302.623 250.536C302.911 251.016 303.306 251.395 303.807 251.672C304.319 251.939 304.901 252.072 305.551 252.072C306.063 252.072 306.538 251.981 306.975 251.8C307.423 251.619 307.807 251.341 308.127 250.968L308.767 251.704C308.394 252.152 307.925 252.493 307.359 252.728C306.805 252.963 306.191 253.08 305.519 253.08ZM315.895 244.52C316.578 244.52 317.175 244.653 317.687 244.92C318.21 245.176 318.615 245.571 318.903 246.104C319.202 246.637 319.351 247.309 319.351 248.12V253H318.215V248.232C318.215 247.347 317.991 246.68 317.543 246.232C317.106 245.773 316.487 245.544 315.687 245.544C315.09 245.544 314.567 245.667 314.119 245.912C313.682 246.147 313.341 246.493 313.095 246.952C312.861 247.4 312.743 247.944 312.743 248.584V253H311.607V244.6H312.695V246.904L312.519 246.472C312.786 245.864 313.213 245.389 313.799 245.048C314.386 244.696 315.085 244.52 315.895 244.52ZM325.076 253.08C324.287 253.08 323.679 252.867 323.252 252.44C322.825 252.013 322.612 251.411 322.612 250.632V242.744H323.748V250.568C323.748 251.059 323.871 251.437 324.116 251.704C324.372 251.971 324.735 252.104 325.204 252.104C325.705 252.104 326.121 251.96 326.452 251.672L326.852 252.488C326.628 252.691 326.356 252.84 326.036 252.936C325.727 253.032 325.407 253.08 325.076 253.08ZM321.108 245.544V244.6H326.308V245.544H321.108ZM334.184 253V251.144L334.136 250.84V247.736C334.136 247.021 333.933 246.472 333.528 246.088C333.133 245.704 332.541 245.512 331.752 245.512C331.208 245.512 330.691 245.603 330.2 245.784C329.709 245.965 329.293 246.205 328.952 246.504L328.44 245.656C328.867 245.293 329.379 245.016 329.976 244.824C330.573 244.621 331.203 244.52 331.864 244.52C332.952 244.52 333.789 244.792 334.376 245.336C334.973 245.869 335.272 246.685 335.272 247.784V253H334.184ZM331.288 253.08C330.659 253.08 330.109 252.979 329.64 252.776C329.181 252.563 328.829 252.275 328.584 251.912C328.339 251.539 328.216 251.112 328.216 250.632C328.216 250.195 328.317 249.8 328.52 249.448C328.733 249.085 329.075 248.797 329.544 248.584C330.024 248.36 330.664 248.248 331.464 248.248H334.36V249.096H331.496C330.685 249.096 330.12 249.24 329.8 249.528C329.491 249.816 329.336 250.173 329.336 250.6C329.336 251.08 329.523 251.464 329.896 251.752C330.269 252.04 330.792 252.184 331.464 252.184C332.104 252.184 332.653 252.04 333.112 251.752C333.581 251.453 333.923 251.027 334.136 250.472L334.392 251.256C334.179 251.811 333.805 252.253 333.272 252.584C332.749 252.915 332.088 253.08 331.288 253.08ZM338.357 253V241.128H339.493V253H338.357Z" fill="#391345"/>
<path d="M112.757 209.3C111.117 209.3 109.607 209.04 108.227 208.52C106.867 207.98 105.677 207.23 104.657 206.27C103.637 205.29 102.847 204.14 102.287 202.82C101.727 201.5 101.447 200.06 101.447 198.5C101.447 196.94 101.727 195.5 102.287 194.18C102.847 192.86 103.637 191.72 104.657 190.76C105.697 189.78 106.907 189.03 108.287 188.51C109.667 187.97 111.177 187.7 112.817 187.7C114.597 187.7 116.197 187.99 117.617 188.57C119.057 189.15 120.267 190 121.247 191.12L118.787 193.52C117.967 192.7 117.077 192.1 116.117 191.72C115.177 191.32 114.137 191.12 112.997 191.12C111.897 191.12 110.877 191.3 109.937 191.66C108.997 192.02 108.187 192.53 107.507 193.19C106.827 193.85 106.297 194.63 105.917 195.53C105.557 196.43 105.377 197.42 105.377 198.5C105.377 199.56 105.557 200.54 105.917 201.44C106.297 202.34 106.827 203.13 107.507 203.81C108.187 204.47 108.987 204.98 109.907 205.34C110.827 205.7 111.847 205.88 112.967 205.88C114.007 205.88 115.007 205.72 115.967 205.4C116.947 205.06 117.877 204.5 118.757 203.72L120.977 206.63C119.877 207.51 118.597 208.18 117.137 208.64C115.697 209.08 114.237 209.3 112.757 209.3ZM117.287 206.12V198.26H120.977V206.63L117.287 206.12ZM125.761 209V192.98H129.511V209H125.761ZM127.651 190.34C126.951 190.34 126.371 190.12 125.911 189.68C125.471 189.24 125.251 188.71 125.251 188.09C125.251 187.45 125.471 186.92 125.911 186.5C126.371 186.06 126.951 185.84 127.651 185.84C128.351 185.84 128.921 186.05 129.361 186.47C129.821 186.87 130.051 187.38 130.051 188C130.051 188.66 129.831 189.22 129.391 189.68C128.951 190.12 128.371 190.34 127.651 190.34ZM141.633 209.21C139.993 209.21 138.533 208.86 137.253 208.16C135.973 207.44 134.963 206.46 134.223 205.22C133.483 203.98 133.113 202.57 133.113 200.99C133.113 199.39 133.483 197.98 134.223 196.76C134.963 195.52 135.973 194.55 137.253 193.85C138.533 193.15 139.993 192.8 141.633 192.8C143.293 192.8 144.763 193.15 146.043 193.85C147.343 194.55 148.353 195.51 149.073 196.73C149.813 197.95 150.183 199.37 150.183 200.99C150.183 202.57 149.813 203.98 149.073 205.22C148.353 206.46 147.343 207.44 146.043 208.16C144.763 208.86 143.293 209.21 141.633 209.21ZM141.633 206C142.553 206 143.373 205.8 144.093 205.4C144.813 205 145.373 204.42 145.773 203.66C146.193 202.9 146.403 202.01 146.403 200.99C146.403 199.95 146.193 199.06 145.773 198.32C145.373 197.56 144.813 196.98 144.093 196.58C143.373 196.18 142.563 195.98 141.663 195.98C140.743 195.98 139.923 196.18 139.203 196.58C138.503 196.98 137.943 197.56 137.523 198.32C137.103 199.06 136.893 199.95 136.893 200.99C136.893 202.01 137.103 202.9 137.523 203.66C137.943 204.42 138.503 205 139.203 205.4C139.923 205.8 140.733 206 141.633 206ZM157.589 209L150.719 192.98H154.619L160.529 207.11H158.609L164.729 192.98H168.329L161.459 209H157.589ZM180.045 209V205.76L179.835 205.07V199.4C179.835 198.3 179.505 197.45 178.845 196.85C178.185 196.23 177.185 195.92 175.845 195.92C174.945 195.92 174.055 196.06 173.175 196.34C172.315 196.62 171.585 197.01 170.985 197.51L169.515 194.78C170.375 194.12 171.395 193.63 172.575 193.31C173.775 192.97 175.015 192.8 176.295 192.8C178.615 192.8 180.405 193.36 181.665 194.48C182.945 195.58 183.585 197.29 183.585 199.61V209H180.045ZM175.005 209.21C173.805 209.21 172.755 209.01 171.855 208.61C170.955 208.19 170.255 207.62 169.755 206.9C169.275 206.16 169.035 205.33 169.035 204.41C169.035 203.51 169.245 202.7 169.665 201.98C170.105 201.26 170.815 200.69 171.795 200.27C172.775 199.85 174.075 199.64 175.695 199.64H180.345V202.13H175.965C174.685 202.13 173.825 202.34 173.385 202.76C172.945 203.16 172.725 203.66 172.725 204.26C172.725 204.94 172.995 205.48 173.535 205.88C174.075 206.28 174.825 206.48 175.785 206.48C176.705 206.48 177.525 206.27 178.245 205.85C178.985 205.43 179.515 204.81 179.835 203.99L180.465 206.24C180.105 207.18 179.455 207.91 178.515 208.43C177.595 208.95 176.425 209.21 175.005 209.21ZM197.488 192.8C198.768 192.8 199.908 193.05 200.908 193.55C201.928 194.05 202.728 194.82 203.308 195.86C203.888 196.88 204.178 198.2 204.178 199.82V209H200.428V200.3C200.428 198.88 200.088 197.82 199.408 197.12C198.748 196.42 197.818 196.07 196.618 196.07C195.738 196.07 194.958 196.25 194.278 196.61C193.598 196.97 193.068 197.51 192.688 198.23C192.328 198.93 192.148 199.82 192.148 200.9V209H188.398V192.98H191.968V197.3L191.338 195.98C191.898 194.96 192.708 194.18 193.768 193.64C194.848 193.08 196.088 192.8 197.488 192.8ZM218.805 209V205.76L218.595 205.07V199.4C218.595 198.3 218.265 197.45 217.605 196.85C216.945 196.23 215.945 195.92 214.605 195.92C213.705 195.92 212.815 196.06 211.935 196.34C211.075 196.62 210.345 197.01 209.745 197.51L208.275 194.78C209.135 194.12 210.155 193.63 211.335 193.31C212.535 192.97 213.775 192.8 215.055 192.8C217.375 192.8 219.165 193.36 220.425 194.48C221.705 195.58 222.345 197.29 222.345 199.61V209H218.805ZM213.765 209.21C212.565 209.21 211.515 209.01 210.615 208.61C209.715 208.19 209.015 207.62 208.515 206.9C208.035 206.16 207.795 205.33 207.795 204.41C207.795 203.51 208.005 202.7 208.425 201.98C208.865 201.26 209.575 200.69 210.555 200.27C211.535 199.85 212.835 199.64 214.455 199.64H219.105V202.13H214.725C213.445 202.13 212.585 202.34 212.145 202.76C211.705 203.16 211.485 203.66 211.485 204.26C211.485 204.94 211.755 205.48 212.295 205.88C212.835 206.28 213.585 206.48 214.545 206.48C215.465 206.48 216.285 206.27 217.005 205.85C217.745 205.43 218.275 204.81 218.595 203.99L219.225 206.24C218.865 207.18 218.215 207.91 217.275 208.43C216.355 208.95 215.185 209.21 213.765 209.21ZM235.808 209V188H239.018L248.198 203.33H246.518L255.548 188H258.758L258.788 209H255.098L255.068 193.79H255.848L248.168 206.6H246.428L238.628 193.79H239.528V209H235.808ZM271.301 209.21C269.661 209.21 268.201 208.86 266.921 208.16C265.641 207.44 264.631 206.46 263.891 205.22C263.151 203.98 262.781 202.57 262.781 200.99C262.781 199.39 263.151 197.98 263.891 196.76C264.631 195.52 265.641 194.55 266.921 193.85C268.201 193.15 269.661 192.8 271.301 192.8C272.961 192.8 274.431 193.15 275.711 193.85C277.011 194.55 278.021 195.51 278.741 196.73C279.481 197.95 279.851 199.37 279.851 200.99C279.851 202.57 279.481 203.98 278.741 205.22C278.021 206.46 277.011 207.44 275.711 208.16C274.431 208.86 272.961 209.21 271.301 209.21ZM271.301 206C272.221 206 273.041 205.8 273.761 205.4C274.481 205 275.041 204.42 275.441 203.66C275.861 202.9 276.071 202.01 276.071 200.99C276.071 199.95 275.861 199.06 275.441 198.32C275.041 197.56 274.481 196.98 273.761 196.58C273.041 196.18 272.231 195.98 271.331 195.98C270.411 195.98 269.591 196.18 268.871 196.58C268.171 196.98 267.611 197.56 267.191 198.32C266.771 199.06 266.561 199.95 266.561 200.99C266.561 202.01 266.771 202.9 267.191 203.66C267.611 204.42 268.171 205 268.871 205.4C269.591 205.8 270.401 206 271.301 206ZM292.527 192.8C293.807 192.8 294.947 193.05 295.947 193.55C296.967 194.05 297.767 194.82 298.347 195.86C298.927 196.88 299.217 198.2 299.217 199.82V209H295.467V200.3C295.467 198.88 295.127 197.82 294.447 197.12C293.787 196.42 292.857 196.07 291.657 196.07C290.777 196.07 289.997 196.25 289.317 196.61C288.637 196.97 288.107 197.51 287.727 198.23C287.367 198.93 287.187 199.82 287.187 200.9V209H283.437V192.98H287.007V197.3L286.377 195.98C286.937 194.96 287.747 194.18 288.807 193.64C289.887 193.08 291.127 192.8 292.527 192.8ZM310.783 209.21C309.243 209.21 307.853 208.87 306.613 208.19C305.393 207.49 304.433 206.53 303.733 205.31C303.033 204.09 302.683 202.65 302.683 200.99C302.683 199.33 303.033 197.89 303.733 196.67C304.433 195.45 305.393 194.5 306.613 193.82C307.853 193.14 309.243 192.8 310.783 192.8C312.123 192.8 313.323 193.1 314.383 193.7C315.443 194.28 316.283 195.17 316.903 196.37C317.523 197.57 317.833 199.11 317.833 200.99C317.833 202.85 317.533 204.39 316.933 205.61C316.333 206.81 315.503 207.71 314.443 208.31C313.383 208.91 312.163 209.21 310.783 209.21ZM311.233 206C312.133 206 312.933 205.8 313.633 205.4C314.353 205 314.923 204.42 315.343 203.66C315.783 202.9 316.003 202.01 316.003 200.99C316.003 199.95 315.783 199.06 315.343 198.32C314.923 197.56 314.353 196.98 313.633 196.58C312.933 196.18 312.133 195.98 311.233 195.98C310.333 195.98 309.523 196.18 308.803 196.58C308.103 196.98 307.533 197.56 307.093 198.32C306.673 199.06 306.463 199.95 306.463 200.99C306.463 202.01 306.673 202.9 307.093 203.66C307.533 204.42 308.103 205 308.803 205.4C309.523 205.8 310.333 206 311.233 206ZM316.093 209V205.22L316.243 200.96L315.943 196.7V186.74H319.663V209H316.093ZM332.129 209.21C330.349 209.21 328.789 208.86 327.449 208.16C326.129 207.44 325.099 206.46 324.359 205.22C323.639 203.98 323.279 202.57 323.279 200.99C323.279 199.39 323.629 197.98 324.329 196.76C325.049 195.52 326.029 194.55 327.269 193.85C328.529 193.15 329.959 192.8 331.559 192.8C333.119 192.8 334.509 193.14 335.729 193.82C336.949 194.5 337.909 195.46 338.609 196.7C339.309 197.94 339.659 199.4 339.659 201.08C339.659 201.24 339.649 201.42 339.629 201.62C339.629 201.82 339.619 202.01 339.599 202.19H326.249V199.7H337.619L336.149 200.48C336.169 199.56 335.979 198.75 335.579 198.05C335.179 197.35 334.629 196.8 333.929 196.4C333.249 196 332.459 195.8 331.559 195.8C330.639 195.8 329.829 196 329.129 196.4C328.449 196.8 327.909 197.36 327.509 198.08C327.129 198.78 326.939 199.61 326.939 200.57V201.17C326.939 202.13 327.159 202.98 327.599 203.72C328.039 204.46 328.659 205.03 329.459 205.43C330.259 205.83 331.179 206.03 332.219 206.03C333.119 206.03 333.929 205.89 334.649 205.61C335.369 205.33 336.009 204.89 336.569 204.29L338.579 206.6C337.859 207.44 336.949 208.09 335.849 208.55C334.769 208.99 333.529 209.21 332.129 209.21ZM346.321 205.43L346.411 200.72L354.781 192.98H359.281L352.171 200.12L350.191 201.77L346.321 205.43ZM343.261 209V186.74H347.011V209H343.261ZM355.351 209L349.501 201.77L351.871 198.77L359.911 209H355.351Z" fill="#391345"/>
</svg>
