<svg width="460" height="300" viewBox="0 0 460 300" fill="none" xmlns="http://www.w3.org/2000/svg">
<rect width="460" height="300" fill="white"/>
<path d="M232.282 118.324C248.244 118.324 261.183 105.044 261.183 88.6619C261.183 72.2801 248.244 59 232.282 59C216.32 59 203.38 72.2801 203.38 88.6619C203.38 105.044 216.32 118.324 232.282 118.324Z" fill="#424D1D"/>
<path d="M263.744 183.143H196.256C189.064 183.143 183.212 177.292 183.212 170.099V129.836C183.212 127.979 184.718 126.472 186.576 126.472C188.433 126.472 189.939 127.978 189.939 129.836V170.099C189.939 173.582 192.773 176.416 196.257 176.416H263.744C267.228 176.416 270.062 173.582 270.062 170.099V147.823C270.062 145.966 271.568 144.459 273.425 144.459C275.283 144.459 276.789 145.966 276.789 147.823V170.099C276.788 177.292 270.937 183.143 263.744 183.143Z" fill="#730202"/>
<path d="M271.797 133.2H188.203C181.474 133.2 176 127.725 176 120.996C176 114.268 181.474 108.793 188.203 108.793H194.002C195.859 108.793 197.365 110.299 197.365 112.157C197.365 114.014 195.859 115.521 194.002 115.521H188.203C185.184 115.521 182.727 117.978 182.727 120.997C182.727 124.016 185.184 126.473 188.203 126.473H271.797C274.816 126.473 277.273 124.016 277.273 120.997C277.273 117.978 274.816 115.521 271.797 115.521H265.998C264.141 115.521 262.635 114.015 262.635 112.157C262.635 110.3 264.141 108.793 265.998 108.793H271.797C278.526 108.793 284 114.268 284 120.996C284 127.725 278.526 133.2 271.797 133.2Z" fill="#730202"/>
<path d="M220.463 102.245L227.065 94.2399L230.085 98.0918L224.264 105.494C222.035 108.326 217.91 105.341 220.463 102.245ZM228.173 84.0149C228.802 81.9635 228.513 80.2106 226.15 77.6068L220.377 70.662C219.558 69.6998 217.627 71.1129 218.434 72.2783L223.051 77.9656C223.924 79.0262 222.302 80.4298 221.4 79.3374L216.624 73.4564C215.735 72.4371 213.896 73.7835 214.827 74.9489C216.173 76.5684 218.256 79.2135 219.603 80.833C220.536 81.7825 219.117 83.1892 218.196 82.0048L213.455 76.1619C212.759 75.4061 211.623 75.8761 211.321 76.7589C210.997 77.702 211.794 78.3911 212.337 79.0897L217.627 85.9233C219.269 87.8254 221.105 88.9527 223.238 88.3145C223.566 88.216 223.966 88.016 224.394 87.7524L238.608 106.1C239.373 107.088 240.85 107.193 241.809 106.396L242.028 106.215C243.107 105.316 243.282 103.674 242.358 102.614L227.306 85.32C227.744 84.831 228.065 84.3673 228.173 84.0149ZM232.196 88.016L234.537 85.1771C231.526 77.7147 242.682 67.7691 248.09 72.3418C254.66 77.9021 244.895 91.3026 238.033 87.9906L235.261 91.5122L232.196 88.016Z" fill="#F2E0D0"/>
<path d="M216.61 154.67L230.652 168.711L244.693 154.67C246.347 153.016 247.276 150.774 247.276 148.436V148.04C247.276 143.39 243.505 139.62 238.855 139.62C236.297 139.62 233.877 140.783 232.279 142.78L230.652 144.815L229.024 142.78C227.426 140.783 225.007 139.62 222.449 139.62C217.798 139.62 214.028 143.39 214.028 148.04V148.436C214.028 150.774 214.957 153.016 216.61 154.67Z" fill="#F23005"/>
<path d="M66 227.901C66 225.296 66.5243 223.013 67.5728 221.052C68.6522 219.06 70.1325 217.528 72.0136 216.456C73.8948 215.383 76.0536 214.847 78.4899 214.847C81.5738 214.847 84.118 215.583 86.1226 217.053C88.158 218.494 89.5303 220.562 90.2396 223.258H84.5498C84.0872 222.002 83.347 221.022 82.3293 220.317C81.3117 219.612 80.0318 219.26 78.4899 219.26C76.3311 219.26 74.6041 220.026 73.3089 221.558C72.0445 223.059 71.4123 225.174 71.4123 227.901C71.4123 230.628 72.0445 232.757 73.3089 234.289C74.6041 235.822 76.3311 236.588 78.4899 236.588C81.5429 236.588 83.5629 235.255 84.5498 232.589H90.2396C89.4995 235.163 88.1117 237.216 86.0763 238.748C84.0409 240.249 81.5121 241 78.4899 241C76.0536 241 73.8948 240.464 72.0136 239.391C70.1325 238.288 68.6522 236.756 67.5728 234.795C66.5243 232.803 66 230.505 66 227.901Z" fill="#424D1D"/>
<path d="M118.856 227.303C118.856 228.253 118.794 229.111 118.671 229.877H99.1957C99.3499 231.899 100.105 233.523 101.462 234.749C102.819 235.975 104.485 236.588 106.458 236.588C109.296 236.588 111.3 235.408 112.472 233.048H118.162C117.391 235.377 115.988 237.292 113.952 238.794C111.948 240.265 109.45 241 106.458 241C104.022 241 101.832 240.464 99.8896 239.391C97.9776 238.288 96.4665 236.756 95.3562 234.795C94.2769 232.803 93.7372 230.505 93.7372 227.901C93.7372 225.296 94.2615 223.013 95.31 221.052C96.3894 219.06 97.8851 217.528 99.7971 216.456C101.74 215.383 103.96 214.847 106.458 214.847C108.864 214.847 111.007 215.368 112.888 216.41C114.77 217.452 116.234 218.923 117.283 220.822C118.331 222.692 118.856 224.852 118.856 227.303ZM113.351 225.648C113.32 223.718 112.626 222.171 111.269 221.006C109.912 219.842 108.232 219.26 106.227 219.26C104.408 219.26 102.85 219.842 101.555 221.006C100.26 222.14 99.4887 223.687 99.242 225.648H113.351Z" fill="#424D1D"/>
<path d="M133.297 241C131.293 241 129.488 240.648 127.885 239.943C126.312 239.207 125.063 238.227 124.138 237.001C123.213 235.745 122.719 234.351 122.658 232.819H128.116C128.209 233.891 128.717 234.795 129.643 235.53C130.599 236.235 131.786 236.588 133.205 236.588C134.685 236.588 135.826 236.312 136.628 235.76C137.46 235.178 137.877 234.443 137.877 233.554C137.877 232.604 137.414 231.899 136.489 231.44C135.595 230.98 134.161 230.475 132.187 229.923C130.275 229.402 128.717 228.896 127.515 228.406C126.312 227.916 125.264 227.165 124.369 226.154C123.506 225.143 123.074 223.81 123.074 222.155C123.074 220.807 123.475 219.581 124.277 218.478C125.078 217.345 126.22 216.456 127.7 215.812C129.211 215.169 130.938 214.847 132.881 214.847C135.78 214.847 138.108 215.583 139.866 217.053C141.655 218.494 142.611 220.47 142.734 222.983H137.46C137.368 221.849 136.905 220.945 136.073 220.271C135.24 219.597 134.114 219.26 132.696 219.26C131.308 219.26 130.244 219.52 129.504 220.041C128.764 220.562 128.394 221.251 128.394 222.109C128.394 222.783 128.64 223.35 129.134 223.81C129.627 224.27 130.229 224.637 130.938 224.913C131.647 225.158 132.696 225.48 134.084 225.878C135.934 226.369 137.445 226.874 138.617 227.395C139.82 227.885 140.853 228.621 141.716 229.601C142.58 230.582 143.027 231.884 143.058 233.508C143.058 234.948 142.657 236.235 141.855 237.369C141.053 238.503 139.912 239.391 138.432 240.035C136.982 240.678 135.271 241 133.297 241Z" fill="#424D1D"/>
<path d="M154.908 219.535V233.554C154.908 234.504 155.124 235.193 155.556 235.622C156.018 236.021 156.789 236.22 157.869 236.22H161.107V240.586H156.944C154.569 240.586 152.75 240.035 151.485 238.932C150.221 237.829 149.589 236.036 149.589 233.554V219.535H146.582V215.261H149.589V208.964H154.908V215.261H161.107V219.535H154.908Z" fill="#424D1D"/>
<path d="M164.21 227.809C164.21 225.265 164.734 223.013 165.782 221.052C166.862 219.091 168.311 217.574 170.131 216.502C171.981 215.399 174.016 214.847 176.237 214.847C178.241 214.847 179.984 215.246 181.464 216.042C182.975 216.808 184.178 217.774 185.072 218.938V215.261H190.392V240.586H185.072V236.817C184.178 238.012 182.96 239.008 181.418 239.805C179.876 240.602 178.118 241 176.144 241C173.955 241 171.95 240.448 170.131 239.345C168.311 238.212 166.862 236.649 165.782 234.657C164.734 232.635 164.21 230.352 164.21 227.809ZM185.072 227.901C185.072 226.154 184.702 224.637 183.962 223.35C183.253 222.063 182.312 221.083 181.14 220.409C179.968 219.735 178.704 219.398 177.347 219.398C175.99 219.398 174.726 219.735 173.554 220.409C172.382 221.052 171.426 222.017 170.686 223.304C169.976 224.561 169.622 226.062 169.622 227.809C169.622 229.555 169.976 231.087 170.686 232.405C171.426 233.723 172.382 234.734 173.554 235.439C174.757 236.113 176.021 236.45 177.347 236.45C178.704 236.45 179.968 236.113 181.14 235.439C182.312 234.764 183.253 233.784 183.962 232.497C184.702 231.179 185.072 229.647 185.072 227.901Z" fill="#424D1D"/>
<path d="M206.57 241C204.566 241 202.762 240.648 201.158 239.943C199.585 239.207 198.336 238.227 197.411 237.001C196.486 235.745 195.992 234.351 195.931 232.819H201.389C201.482 233.891 201.991 234.795 202.916 235.53C203.872 236.235 205.059 236.588 206.478 236.588C207.958 236.588 209.099 236.312 209.901 235.76C210.734 235.178 211.15 234.443 211.15 233.554C211.15 232.604 210.687 231.899 209.762 231.44C208.868 230.98 207.434 230.475 205.46 229.923C203.548 229.402 201.991 228.896 200.788 228.406C199.585 227.916 198.537 227.165 197.642 226.154C196.779 225.143 196.347 223.81 196.347 222.155C196.347 220.807 196.748 219.581 197.55 218.478C198.352 217.345 199.493 216.456 200.973 215.812C202.484 215.169 204.211 214.847 206.154 214.847C209.053 214.847 211.381 215.583 213.139 217.053C214.928 218.494 215.884 220.47 216.007 222.983H210.734C210.641 221.849 210.178 220.945 209.346 220.271C208.513 219.597 207.388 219.26 205.969 219.26C204.581 219.26 203.517 219.52 202.777 220.041C202.037 220.562 201.667 221.251 201.667 222.109C201.667 222.783 201.914 223.35 202.407 223.81C202.9 224.27 203.502 224.637 204.211 224.913C204.92 225.158 205.969 225.48 207.357 225.878C209.207 226.369 210.718 226.874 211.89 227.395C213.093 227.885 214.126 228.621 214.989 229.601C215.853 230.582 216.3 231.884 216.331 233.508C216.331 234.948 215.93 236.235 215.128 237.369C214.326 238.503 213.185 239.391 211.705 240.035C210.256 240.678 208.544 241 206.57 241Z" fill="#F23A29"/>
<path d="M233.085 241C230.679 241 228.505 240.464 226.562 239.391C224.62 238.288 223.093 236.756 221.983 234.795C220.873 232.803 220.317 230.505 220.317 227.901C220.317 225.327 220.888 223.044 222.029 221.052C223.17 219.06 224.727 217.528 226.701 216.456C228.675 215.383 230.88 214.847 233.316 214.847C235.752 214.847 237.957 215.383 239.931 216.456C241.905 217.528 243.462 219.06 244.603 221.052C245.744 223.044 246.315 225.327 246.315 227.901C246.315 230.475 245.729 232.757 244.557 234.749C243.385 236.741 241.782 238.288 239.746 239.391C237.742 240.464 235.521 241 233.085 241ZM233.085 236.45C234.442 236.45 235.706 236.128 236.878 235.484C238.081 234.841 239.052 233.876 239.792 232.589C240.533 231.302 240.903 229.739 240.903 227.901C240.903 226.062 240.548 224.515 239.839 223.258C239.129 221.971 238.189 221.006 237.017 220.363C235.845 219.719 234.581 219.398 233.224 219.398C231.867 219.398 230.602 219.719 229.43 220.363C228.289 221.006 227.38 221.971 226.701 223.258C226.023 224.515 225.683 226.062 225.683 227.901C225.683 230.628 226.377 232.742 227.765 234.243C229.184 235.714 230.957 236.45 233.085 236.45Z" fill="#F23A29"/>
<path d="M256.802 206.574V240.586H251.528V206.574H256.802Z" fill="#F23A29"/>
<path d="M266.408 211.906C265.452 211.906 264.65 211.584 264.003 210.94C263.355 210.297 263.031 209.5 263.031 208.55C263.031 207.6 263.355 206.804 264.003 206.16C264.65 205.517 265.452 205.195 266.408 205.195C267.333 205.195 268.12 205.517 268.767 206.16C269.415 206.804 269.739 207.6 269.739 208.55C269.739 209.5 269.415 210.297 268.767 210.94C268.12 211.584 267.333 211.906 266.408 211.906ZM268.999 215.261V240.586H263.725V215.261H268.999Z" fill="#F23A29"/>
<path d="M274.164 227.809C274.164 225.265 274.689 223.013 275.737 221.052C276.817 219.091 278.266 217.574 280.086 216.502C281.936 215.399 283.987 214.847 286.238 214.847C287.903 214.847 289.538 215.215 291.141 215.95C292.776 216.655 294.071 217.605 295.027 218.8V206.574H300.347V240.586H295.027V236.771C294.164 237.997 292.961 239.008 291.419 239.805C289.908 240.602 288.165 241 286.192 241C283.971 241 281.936 240.448 280.086 239.345C278.266 238.212 276.817 236.649 275.737 234.657C274.689 232.635 274.164 230.352 274.164 227.809ZM295.027 227.901C295.027 226.154 294.657 224.637 293.917 223.35C293.208 222.063 292.267 221.083 291.095 220.409C289.923 219.735 288.659 219.398 287.302 219.398C285.945 219.398 284.681 219.735 283.509 220.409C282.337 221.052 281.381 222.017 280.641 223.304C279.931 224.561 279.577 226.062 279.577 227.809C279.577 229.555 279.931 231.087 280.641 232.405C281.381 233.723 282.337 234.734 283.509 235.439C284.711 236.113 285.976 236.45 287.302 236.45C288.659 236.45 289.923 236.113 291.095 235.439C292.267 234.764 293.208 233.784 293.917 232.497C294.657 231.179 295.027 229.647 295.027 227.901Z" fill="#F23A29"/>
<path d="M305.516 227.809C305.516 225.265 306.04 223.013 307.088 221.052C308.168 219.091 309.617 217.574 311.437 216.502C313.287 215.399 315.322 214.847 317.543 214.847C319.547 214.847 321.29 215.246 322.77 216.042C324.281 216.808 325.484 217.774 326.378 218.938V215.261H331.698V240.586H326.378V236.817C325.484 238.012 324.266 239.008 322.724 239.805C321.182 240.602 319.424 241 317.45 241C315.261 241 313.256 240.448 311.437 239.345C309.617 238.212 308.168 236.649 307.088 234.657C306.04 232.635 305.516 230.352 305.516 227.809ZM326.378 227.901C326.378 226.154 326.008 224.637 325.268 223.35C324.559 222.063 323.618 221.083 322.446 220.409C321.274 219.735 320.01 219.398 318.653 219.398C317.296 219.398 316.032 219.735 314.86 220.409C313.688 221.052 312.732 222.017 311.992 223.304C311.283 224.561 310.928 226.062 310.928 227.809C310.928 229.555 311.283 231.087 311.992 232.405C312.732 233.723 313.688 234.734 314.86 235.439C316.063 236.113 317.327 236.45 318.653 236.45C320.01 236.45 321.274 236.113 322.446 235.439C323.618 234.764 324.559 233.784 325.268 232.497C326.008 231.179 326.378 229.647 326.378 227.901ZM324.25 208.458L314.027 213.468V209.607L324.25 204V208.458Z" fill="#F23A29"/>
<path d="M343.898 218.938C344.669 217.651 345.687 216.655 346.951 215.95C348.246 215.215 349.773 214.847 351.531 214.847V220.271H350.189C348.123 220.271 346.55 220.792 345.471 221.834C344.422 222.875 343.898 224.683 343.898 227.257V240.586H338.625V215.261H343.898V218.938Z" fill="#F23A29"/>
<path d="M359.061 211.906C358.105 211.906 357.303 211.584 356.656 210.94C356.008 210.297 355.684 209.5 355.684 208.55C355.684 207.6 356.008 206.804 356.656 206.16C357.303 205.517 358.105 205.195 359.061 205.195C359.986 205.195 360.773 205.517 361.42 206.16C362.068 206.804 362.392 207.6 362.392 208.55C362.392 209.5 362.068 210.297 361.42 210.94C360.773 211.584 359.986 211.906 359.061 211.906ZM361.652 215.261V240.586H356.378V215.261H361.652Z" fill="#F23A29"/>
<path d="M366.818 227.809C366.818 225.265 367.342 223.013 368.39 221.052C369.47 219.091 370.919 217.574 372.739 216.502C374.589 215.399 376.624 214.847 378.845 214.847C380.849 214.847 382.592 215.246 384.072 216.042C385.583 216.808 386.786 217.774 387.68 218.938V215.261H393V240.586H387.68V236.817C386.786 238.012 385.568 239.008 384.026 239.805C382.484 240.602 380.726 241 378.752 241C376.563 241 374.558 240.448 372.739 239.345C370.919 238.212 369.47 236.649 368.39 234.657C367.342 232.635 366.818 230.352 366.818 227.809ZM387.68 227.901C387.68 226.154 387.31 224.637 386.57 223.35C385.861 222.063 384.92 221.083 383.748 220.409C382.576 219.735 381.312 219.398 379.955 219.398C378.598 219.398 377.334 219.735 376.162 220.409C374.99 221.052 374.034 222.017 373.294 223.304C372.584 224.561 372.23 226.062 372.23 227.809C372.23 229.555 372.584 231.087 373.294 232.405C374.034 233.723 374.99 234.734 376.162 235.439C377.365 236.113 378.629 236.45 379.955 236.45C381.312 236.45 382.576 236.113 383.748 235.439C384.92 234.764 385.861 233.784 386.57 232.497C387.31 231.179 387.68 229.647 387.68 227.901Z" fill="#F23A29"/>
</svg>
