<svg width="460" height="300" viewBox="0 0 460 300" fill="none" xmlns="http://www.w3.org/2000/svg">
<rect width="460" height="300" fill="white"/>
<g clip-path="url(#clip0_1_33)">
<path d="M134.417 115.433C145.2 123.29 152.208 136.016 152.208 150.379C152.208 174.242 132.863 193.588 109 193.588L114.083 203.246" stroke="#E63329" stroke-width="9" stroke-linecap="round" stroke-linejoin="round"/>
<path d="M83.5833 184.946C72.7999 177.09 65.7916 164.363 65.7916 150.001C65.7916 126.137 85.1367 106.792 109 106.792L103.917 97.1338" stroke="#9800EF" stroke-width="9" stroke-linecap="round" stroke-linejoin="round"/>
<path d="M90.7 151.299L103.213 163.725L131.367 135.767" stroke="#FF930A" stroke-width="9" stroke-linecap="round" stroke-linejoin="round"/>
</g>
<path d="M177.666 147.551V158.492H170V147.402C170 146.211 170.248 145.244 170.744 144.5C171.29 143.706 172.084 142.961 173.126 142.267C174.515 141.374 176.326 140.629 178.559 140.034C180.841 139.439 183.322 139.141 186.002 139.141C190.318 139.141 192.477 140.357 192.477 142.788C192.477 143.383 192.377 143.929 192.179 144.425C192.03 144.921 191.832 145.368 191.583 145.765C191.087 145.666 190.442 145.566 189.648 145.467C188.904 145.368 188.135 145.318 187.341 145.318C185.307 145.318 183.446 145.542 181.759 145.988C180.122 146.385 178.757 146.906 177.666 147.551ZM170 155.291L177.666 155.961V174.791C177.319 174.89 176.822 175.014 176.177 175.163C175.582 175.312 174.912 175.386 174.168 175.386C172.779 175.386 171.737 175.113 171.042 174.568C170.347 174.022 170 173.129 170 171.888V155.291Z" fill="#39005B"/>
<path d="M231.398 157.524C231.398 161.245 230.678 164.495 229.239 167.274C227.801 170.052 225.766 172.211 223.137 173.749C220.507 175.237 217.406 175.982 213.833 175.982C210.261 175.982 207.16 175.237 204.53 173.749C201.9 172.211 199.866 170.077 198.427 167.348C196.988 164.57 196.269 161.295 196.269 157.524C196.269 153.753 196.988 150.503 198.427 147.774C199.916 144.996 201.975 142.862 204.605 141.374C207.284 139.836 210.36 139.066 213.833 139.066C217.356 139.066 220.432 139.836 223.062 141.374C225.692 142.862 227.726 144.996 229.165 147.774C230.654 150.503 231.398 153.753 231.398 157.524ZM213.833 145.244C210.856 145.244 208.475 146.335 206.688 148.519C204.952 150.702 204.084 153.704 204.084 157.524C204.084 161.394 204.927 164.421 206.614 166.604C208.351 168.738 210.757 169.804 213.833 169.804C216.91 169.804 219.291 168.713 220.978 166.53C222.715 164.346 223.583 161.345 223.583 157.524C223.583 153.704 222.715 150.702 220.978 148.519C219.242 146.335 216.86 145.244 213.833 145.244Z" fill="#39005B"/>
<path d="M239.923 155.291H247.514V164.818C247.514 166.604 248.035 167.869 249.077 168.614C250.119 169.358 251.583 169.73 253.469 169.73C254.262 169.73 255.156 169.606 256.148 169.358C257.14 169.11 257.959 168.812 258.604 168.465C258.951 168.812 259.249 169.259 259.497 169.804C259.795 170.301 259.944 170.871 259.944 171.516C259.944 172.806 259.274 173.873 257.934 174.716C256.644 175.51 254.684 175.907 252.054 175.907C248.383 175.907 245.431 175.089 243.198 173.451C241.015 171.814 239.923 169.085 239.923 165.264V155.291ZM244.24 146.956V140.853H259.051C259.249 141.15 259.423 141.572 259.571 142.118C259.77 142.664 259.869 143.234 259.869 143.83C259.869 144.872 259.621 145.666 259.125 146.211C258.678 146.708 258.033 146.956 257.19 146.956H244.24ZM247.514 157.375H239.923V130.508C240.221 130.408 240.692 130.284 241.337 130.135C241.982 129.987 242.677 129.912 243.421 129.912C244.81 129.912 245.828 130.185 246.473 130.731C247.167 131.277 247.514 132.17 247.514 133.41V157.375Z" fill="#39005B"/>
<path d="M267.455 129.466C267.455 128.176 267.902 127.109 268.795 126.265C269.688 125.422 270.78 125 272.07 125C273.459 125 274.575 125.422 275.419 126.265C276.262 127.109 276.684 128.176 276.684 129.466C276.684 130.706 276.262 131.773 275.419 132.666C274.575 133.509 273.459 133.931 272.07 133.931C270.78 133.931 269.688 133.509 268.795 132.666C267.902 131.773 267.455 130.706 267.455 129.466ZM268.274 155.291H275.94V174.791C275.593 174.89 275.096 175.014 274.451 175.163C273.856 175.312 273.186 175.386 272.442 175.386C271.053 175.386 270.011 175.113 269.316 174.568C268.621 174.022 268.274 173.129 268.274 171.888V155.291ZM275.94 159.087H268.274V140.332C268.621 140.232 269.118 140.133 269.763 140.034C270.408 139.885 271.102 139.811 271.847 139.811C273.236 139.811 274.253 140.084 274.898 140.629C275.593 141.126 275.94 142.019 275.94 143.309V159.087Z" fill="#39005B"/>
<path d="M317.84 152.091V159.459H310.174V152.389C310.174 149.908 309.479 148.097 308.09 146.956C306.701 145.814 304.84 145.244 302.508 145.244C300.772 145.244 299.209 145.467 297.819 145.914C296.43 146.36 295.239 146.856 294.247 147.402V159.459H286.581V147.253C286.581 146.112 286.804 145.194 287.251 144.5C287.747 143.755 288.516 143.061 289.558 142.416C290.947 141.572 292.758 140.803 294.991 140.108C297.224 139.414 299.73 139.066 302.508 139.066C307.321 139.066 311.067 140.158 313.747 142.341C316.475 144.475 317.84 147.725 317.84 152.091ZM286.581 155.589H294.247V174.791C293.9 174.89 293.403 175.014 292.758 175.163C292.163 175.312 291.493 175.386 290.749 175.386C289.36 175.386 288.318 175.113 287.623 174.568C286.928 174.022 286.581 173.129 286.581 171.888V155.589ZM310.174 155.589H317.84V174.791C317.493 174.89 316.996 175.014 316.351 175.163C315.706 175.312 315.037 175.386 314.342 175.386C312.903 175.386 311.836 175.113 311.142 174.568C310.497 174.022 310.174 173.129 310.174 171.888V155.589Z" fill="#39005B"/>
<path d="M327.636 129.466C327.636 128.176 328.082 127.109 328.975 126.265C329.868 125.422 330.96 125 332.25 125C333.639 125 334.756 125.422 335.599 126.265C336.443 127.109 336.864 128.176 336.864 129.466C336.864 130.706 336.443 131.773 335.599 132.666C334.756 133.509 333.639 133.931 332.25 133.931C330.96 133.931 329.868 133.509 328.975 132.666C328.082 131.773 327.636 130.706 327.636 129.466ZM328.454 155.291H336.12V174.791C335.773 174.89 335.277 175.014 334.632 175.163C334.036 175.312 333.366 175.386 332.622 175.386C331.233 175.386 330.191 175.113 329.496 174.568C328.802 174.022 328.454 173.129 328.454 171.888V155.291ZM336.12 159.087H328.454V140.332C328.802 140.232 329.298 140.133 329.943 140.034C330.588 139.885 331.283 139.811 332.027 139.811C333.416 139.811 334.433 140.084 335.078 140.629C335.773 141.126 336.12 142.019 336.12 143.309V159.087Z" fill="#39005B"/>
<path d="M349.366 174.94H346.315C345.868 174.543 345.496 174.047 345.198 173.451C344.901 172.856 344.752 172.236 344.752 171.591C344.752 170.896 344.901 170.226 345.198 169.581C345.546 168.936 345.943 168.316 346.389 167.72L368.791 140.108H371.62C372.116 140.555 372.513 141.076 372.81 141.671C373.108 142.217 373.257 142.837 373.257 143.532C373.257 144.177 373.108 144.822 372.81 145.467C372.513 146.063 372.091 146.683 371.545 147.328L349.366 174.94ZM370.354 140.108V146.211H346.017C345.819 145.914 345.62 145.492 345.422 144.946C345.273 144.4 345.198 143.805 345.198 143.16C345.198 142.118 345.446 141.349 345.943 140.853C346.439 140.357 347.109 140.108 347.952 140.108H370.354ZM347.654 174.94V168.837H373.034C373.232 169.135 373.406 169.556 373.555 170.102C373.753 170.598 373.852 171.194 373.852 171.888C373.852 172.881 373.604 173.65 373.108 174.195C372.612 174.692 371.942 174.94 371.099 174.94H347.654Z" fill="#39005B"/>
<path d="M384.34 161.766L383.968 156.184L405.105 153.207C404.956 150.875 404.137 148.94 402.649 147.402C401.16 145.814 399.051 145.021 396.323 145.021C393.544 145.021 391.237 146.013 389.401 147.998C387.565 149.982 386.622 152.81 386.573 156.482L386.722 159.31C387.119 162.833 388.384 165.488 390.517 167.274C392.651 169.01 395.454 169.879 398.927 169.879C401.011 169.879 402.922 169.556 404.658 168.911C406.395 168.266 407.784 167.572 408.826 166.827C409.421 167.175 409.893 167.646 410.24 168.241C410.637 168.837 410.836 169.482 410.836 170.176C410.836 171.268 410.29 172.26 409.198 173.154C408.107 174.047 406.618 174.741 404.733 175.237C402.897 175.734 400.813 175.982 398.481 175.982C394.66 175.982 391.311 175.287 388.433 173.898C385.556 172.459 383.323 170.35 381.735 167.572C380.147 164.743 379.353 161.295 379.353 157.226C379.353 154.299 379.775 151.719 380.619 149.486C381.512 147.204 382.727 145.293 384.266 143.755C385.804 142.217 387.615 141.051 389.699 140.257C391.783 139.463 394.015 139.066 396.397 139.066C399.523 139.066 402.277 139.736 404.658 141.076C407.089 142.366 408.975 144.177 410.315 146.509C411.654 148.841 412.324 151.496 412.324 154.473C412.324 155.713 412.026 156.631 411.431 157.226C410.836 157.772 409.992 158.119 408.901 158.268L384.34 161.766Z" fill="#39005B"/>
<defs>
<clipPath id="clip0_1_33">
<rect width="122" height="122" fill="white" transform="translate(48 89)"/>
</clipPath>
</defs>
</svg>
